<svg xmlns="http://www.w3.org/2000/svg" viewBox="0 0 44.34 70.65"><defs><style>.cls-1{fill:#2e3192;}</style></defs><title>admission_icon</title><g id="Layer_2" data-name="Layer 2"><g id="Layer_1-2" data-name="Layer 1"><polygon class="cls-1" points="9.66 44.46 7.92 46.21 19.45 57.84 36.42 40.88 34.67 39.13 19.45 54.35 9.66 44.46"/><path class="cls-1" d="M29.16,9.74a6.51,6.51,0,0,1-11.57,4.11c-3.72-4.58.43-11.6,6.24-10.5a6.58,6.58,0,0,1,5.33,6.39c0,2.08,3.28,2.1,3.24,0A9.86,9.86,0,0,0,25.92.57a9.74,9.74,0,0,0-10.8,3,9.88,9.88,0,0,0-.88,11.08A9.75,9.75,0,0,0,32.4,9.74C32.44,7.67,29.2,7.67,29.16,9.74Z"/><path class="cls-1" d="M8.69,29.15a19.86,19.86,0,0,1,14-5.89,20.43,20.43,0,0,1,13.87,5.89c1.51,1.45,3.8-.84,2.28-2.29A23.82,23.82,0,0,0,22.72,20,23.36,23.36,0,0,0,6.4,26.86c-1.49,1.45.8,3.74,2.29,2.29Z"/><path class="cls-1" d="M22.17,70.65A22.17,22.17,0,1,1,44.34,48.49,22.19,22.19,0,0,1,22.17,70.65Zm0-41.92A19.76,19.76,0,1,0,41.92,48.49,19.77,19.77,0,0,0,22.17,28.73Z"/></g></g></svg>