<svg xmlns="http://www.w3.org/2000/svg" viewBox="0 0 56.67 68"><defs><style>.cls-1{fill:#2e3192;}</style></defs><title>administration_icon</title><g id="Layer_2" data-name="Layer 2"><g id="Layer_1-2" data-name="Layer 1"><g id="Layer_1-3" data-name="Layer 1"><path class="cls-1" d="M0,43.92V68H43l3.07-2.39A27.3,27.3,0,0,0,56.67,43.92V43L44.14,37.43A18.38,18.38,0,0,0,30.61,25.89a14.17,14.17,0,1,0-15.9,0A18.44,18.44,0,0,0,0,43.92Zm53.82.91a24.52,24.52,0,0,1-9.51,18.55L42.5,64.79l-1.81-1.41a24.52,24.52,0,0,1-9.51-18.55l11.32-5ZM11.33,14.17A11.34,11.34,0,1,1,22.67,25.5,11.36,11.36,0,0,1,11.33,14.17Zm7.09,14.16h8.5a15.56,15.56,0,0,1,14.11,9L28.33,43v.92A27.31,27.31,0,0,0,38.4,65.17H2.83V43.92A15.6,15.6,0,0,1,18.42,28.33Z"/><polygon class="cls-1" points="43.92 45.33 41.08 45.33 41.08 49.58 36.83 49.58 36.83 52.42 41.08 52.42 41.08 56.67 43.92 56.67 43.92 52.42 48.17 52.42 48.17 49.58 43.92 49.58 43.92 45.33"/></g></g></g></svg>