<svg xmlns="http://www.w3.org/2000/svg" viewBox="0 0 79 74.63"><defs><style>.cls-1{fill:#2e3192;}</style></defs><title>classes_icon</title><g id="Layer_2" data-name="Layer 2"><g id="Layer_1-2" data-name="Layer 1"><path class="cls-1" d="M47,9.89A7.48,7.48,0,1,1,33.09,6,7.47,7.47,0,0,1,47,9.89a1.21,1.21,0,0,0,2.42,0A9.89,9.89,0,0,0,31.94,3.51,10,10,0,0,0,31,15,9.9,9.9,0,0,0,49.41,9.87,1.22,1.22,0,0,0,47,9.89Z"/><path class="cls-1" d="M24.24,30.25A22.38,22.38,0,0,1,36,24.08a20.89,20.89,0,0,1,12.45,1.77,23.64,23.64,0,0,1,6.33,4.42c1.13,1.08,2.85-.63,1.71-1.72a25.11,25.11,0,0,0-12.86-6.78,23.39,23.39,0,0,0-14,1.83,25.86,25.86,0,0,0-7.06,4.95c-1.11,1.07.6,2.79,1.72,1.7Z"/><path class="cls-1" d="M71.32,51.2a1.65,1.65,0,0,1-1.64-1.64V36.09a1.49,1.49,0,0,0-1.49-1.49H12a1.5,1.5,0,0,0-1.5,1.49V49.56a1.65,1.65,0,0,1-3.29,0V36.09A4.79,4.79,0,0,1,12,31.31H68.19A4.79,4.79,0,0,1,73,36.09V49.56A1.65,1.65,0,0,1,71.32,51.2Z"/><path class="cls-1" d="M17.42,59.73A4.87,4.87,0,0,1,8.75,62.8a4.88,4.88,0,1,1,8.67-3.07,1.22,1.22,0,0,0,2.43,0A7.4,7.4,0,0,0,15,52.85a7.31,7.31,0,1,0,4.85,6.88A1.22,1.22,0,0,0,17.42,59.73Z"/><path class="cls-1" d="M2.08,74.28A14.91,14.91,0,0,1,12.6,69.86,15.27,15.27,0,0,1,23,74.28c1.14,1.08,2.85-.63,1.72-1.72A17.91,17.91,0,0,0,12.6,67.43,17.57,17.57,0,0,0,.36,72.56c-1.11,1.09.6,2.8,1.72,1.72Z"/><path class="cls-1" d="M44.38,59.73a5,5,0,0,1-3.18,4.58,4.88,4.88,0,1,1,3.18-4.58,1.21,1.21,0,0,0,2.42,0,7.3,7.3,0,1,0-5.89,7.17,7.39,7.39,0,0,0,5.89-7.17A1.21,1.21,0,0,0,44.38,59.73Z"/><path class="cls-1" d="M29.05,74.28a14.91,14.91,0,0,1,10.52-4.42A15.27,15.27,0,0,1,50,74.28c1.13,1.08,2.85-.63,1.72-1.72a17.91,17.91,0,0,0-12.11-5.13,17.57,17.57,0,0,0-12.24,5.13c-1.13,1.09.58,2.8,1.72,1.72Z"/><path class="cls-1" d="M71.34,59.73a4.88,4.88,0,1,1-4-4.79,4.94,4.94,0,0,1,4,4.79,1.22,1.22,0,0,0,2.43,0,7.4,7.4,0,0,0-4.85-6.88,7.32,7.32,0,0,0-8.1,2.26,7.3,7.3,0,1,0,12.95,4.62A1.22,1.22,0,0,0,71.34,59.73Z"/><path class="cls-1" d="M56,74.28a14.91,14.91,0,0,1,10.52-4.42,15.27,15.27,0,0,1,10.39,4.42c1.14,1.08,2.85-.63,1.72-1.72a17.91,17.91,0,0,0-12.11-5.13,17.57,17.57,0,0,0-12.24,5.13c-1.11,1.09.6,2.8,1.72,1.72Z"/></g></g></svg>