<svg xmlns="http://www.w3.org/2000/svg" viewBox="0 0 58.41 75"><defs><style>.cls-1{fill:#2e3192;}</style></defs><title>classTime_icon</title><g id="Layer_2" data-name="Layer 2"><g id="Layer_1-2" data-name="Layer 1"><g id="miu"><g id="Artboard-1"><path id="circle-clock-time-history-recent-2-outline-stroke" class="cls-1" d="M0,29.2A29.21,29.21,0,1,1,29.2,58.41,29.2,29.2,0,0,1,0,29.2Zm55.87,0A26.67,26.67,0,1,0,29.2,55.87,26.67,26.67,0,0,0,55.87,29.2Zm-27.94-19h2.54V30.47H15.24V27.93H27.93Z"/></g><path class="cls-1" d="M13.36,65.67a3.1,3.1,0,0,1-2,2.87A3,3,0,0,1,8,67.6a3.08,3.08,0,0,1,2.91-4.93,3.09,3.09,0,0,1,2.48,3,.76.76,0,0,0,1.51,0,4.64,4.64,0,0,0-3-4.31,4.51,4.51,0,0,0-5,1.42A4.63,4.63,0,0,0,6.41,68a4.53,4.53,0,0,0,8.46-2.31A.76.76,0,0,0,13.36,65.67Z"/><path class="cls-1" d="M3.83,74.78A9.23,9.23,0,0,1,10.36,72a9.47,9.47,0,0,1,6.46,2.76c.7.68,1.77-.39,1.06-1.07a11,11,0,0,0-7.52-3.21,10.82,10.82,0,0,0-7.6,3.21c-.69.68.38,1.75,1.07,1.07Z"/><path class="cls-1" d="M30.1,65.67a3.11,3.11,0,0,1-2,2.87,3,3,0,0,1-3.42-.94,3,3,0,1,1,5.39-1.93.75.75,0,0,0,1.5,0,4.63,4.63,0,0,0-3-4.31,4.53,4.53,0,0,0-5,1.42,4.68,4.68,0,0,0-.41,5.2,4.53,4.53,0,0,0,8.45-2.31A.75.75,0,0,0,30.1,65.67Z"/><path class="cls-1" d="M20.58,74.78A9.23,9.23,0,0,1,27.11,72a9.49,9.49,0,0,1,6.46,2.76c.7.68,1.76-.39,1.06-1.07a11,11,0,0,0-7.52-3.21,10.82,10.82,0,0,0-7.6,3.21c-.7.68.36,1.75,1.07,1.07Z"/><path class="cls-1" d="M46.84,65.67a3.1,3.1,0,0,1-2,2.87,3,3,0,0,1-3.41-.94,3,3,0,1,1,5.38-1.93.76.76,0,0,0,1.51,0,4.63,4.63,0,0,0-3-4.31,4.53,4.53,0,0,0-5,1.42A4.65,4.65,0,0,0,39.9,68a4.55,4.55,0,0,0,4.79,2.18,4.61,4.61,0,0,0,3.66-4.49A.76.76,0,0,0,46.84,65.67Z"/><path class="cls-1" d="M37.31,74.78A9.25,9.25,0,0,1,43.85,72a9.46,9.46,0,0,1,6.45,2.76c.71.68,1.77-.39,1.07-1.07a11,11,0,0,0-7.52-3.21,10.8,10.8,0,0,0-7.6,3.21.75.75,0,0,0,1.06,1.07Z"/></g></g></g></svg>