<svg xmlns="http://www.w3.org/2000/svg" viewBox="0 0 105.28 72.07"><defs><style>.cls-1{fill:#2e3192;}</style></defs><title>Asset 43</title><g id="Layer_2" data-name="Layer 2"><g id="Layer_1-2" data-name="Layer 1"><path class="cls-1" d="M56.87,19.25h0A26.63,26.63,0,0,0,27.66,37.71h0A26.56,26.56,0,0,0,53.12,72.07h.14A26.59,26.59,0,0,0,67.33,68h0A26.57,26.57,0,0,0,78.53,53.5a26.27,26.27,0,0,0,1.23-8A26.67,26.67,0,0,0,56.87,19.25Zm14.88,11a24,24,0,0,1,4.73,21.57l-.43,0-.65-.05c-.37,0-.73,0-1.1,0l-.4,0h-.77l-.9.05-.51,0-1,.12-.41.06a22.89,22.89,0,0,0-2.7.61l-.35.12c-.32.1-.63.2-1,.32l-.46.18-.83.34-.27.12,0-.06q-.42-1-.9-2l-.21-.44c-.33-.66-.67-1.32-1-2,0-.09-.09-.17-.14-.26-.34-.61-.7-1.21-1.07-1.82-.07-.12-.14-.24-.22-.36-.4-.65-.82-1.3-1.26-1.94l-.11-.17A83.83,83.83,0,0,0,71.75,30.21ZM55,68.94a2.45,2.45,0,0,1,.08-.29c.1-.36.21-.71.34-1.06,0-.07,0-.14.08-.22.1-.27.2-.54.31-.81l.15-.35c.09-.22.19-.45.29-.66l.18-.37c.1-.21.21-.42.31-.62l.19-.35c.12-.22.25-.43.38-.64s.11-.2.17-.3c.38-.6.79-1.19,1.22-1.74l.21-.26c.16-.19.31-.38.47-.56l.26-.3.47-.49.27-.28q.25-.26.51-.48l.27-.25.63-.54.17-.14q.42-.33.84-.63l.24-.16.51-.34v0a1.18,1.18,0,0,0,.07.2c.12.37.24.74.35,1.1.05.15.09.29.13.44s.17.59.25.88l.12.47.21.88c0,.15.07.29.1.43.08.37.15.75.22,1.12l0,.18c.07.43.14.86.2,1.28,0,.13,0,.26,0,.39,0,.3.07.6.1.91,0,.15,0,.31,0,.46l0,.41a24.18,24.18,0,0,1-10.62,3.29C54.84,69.35,54.9,69.15,55,68.94ZM58.39,42.6l-.06-.07c-.46-.62-.94-1.23-1.43-1.85l-.32-.4c-.51-.62-1-1.23-1.55-1.84l-.12-.13c-.51-.58-1-1.16-1.57-1.74L53,36.21c-.56-.6-1.13-1.18-1.72-1.77l-.11-.11.11-.12c.38-.37.75-.74,1.1-1.14l0,0c.35-.4.68-.81,1-1.23l.17-.22c.3-.41.6-.83.87-1.27l.16-.24c.28-.45.54-.9.79-1.37a.36.36,0,0,0,0-.09c.24-.45.46-.92.67-1.39l.1-.24c.21-.47.39-1,.56-1.46a2.47,2.47,0,0,0,.1-.29c.17-.51.32-1,.45-1.53,0-.06,0-.12.05-.18.12-.5.23-1,.32-1.52l0-.15A24.07,24.07,0,0,1,70,28.34,82.36,82.36,0,0,1,58.39,42.6ZM53.12,21.43c.71,0,1.44,0,2.18.1l0,.15c-.09.47-.19.94-.3,1.39a.31.31,0,0,0,0,.08c-.12.47-.26.93-.42,1.39,0,.08-.05.17-.08.25-.16.44-.32.87-.5,1.3l-.11.24c-.19.43-.4.86-.62,1.28l0,.06c-.22.41-.45.8-.7,1.19l-.12.2c-.25.38-.51.76-.78,1.12l-.17.22c-.28.36-.58.72-.88,1.06l-.11.12c-.3.33-.61.64-.93,1l-.1.09a81.33,81.33,0,0,0-9.22-7.49A24.24,24.24,0,0,1,53.12,21.43ZM38.05,26.64a78.25,78.25,0,0,1,9.44,7.55,1.53,1.53,0,0,1-.16.11c-.17.13-.36.24-.54.36l-.83.53-.59.32-.85.44-.63.28-.88.35-.65.23c-.3.11-.61.2-.93.29l-.65.17c-.32.08-.66.15-1,.21l-.63.12c-.37.06-.75.1-1.13.14l-.54.06c-.56.05-1.13.07-1.71.07s-1,0-1.52,0l-.47,0-1.06-.11-.54-.09c-.35,0-.69-.11-1-.18l-.51-.11-.24-.06A24,24,0,0,1,38.05,26.64ZM29.68,39.57l.35.07.63.14,1.09.2.63.1,1.16.13.55,0c.56,0,1.13.06,1.69.06h0c.6,0,1.18,0,1.76-.07h.15c.56,0,1.1-.11,1.64-.19l.22,0c.53-.08,1.05-.19,1.56-.31l.25-.05c.51-.13,1-.27,1.5-.43l.25-.08c.49-.16,1-.34,1.46-.54l.21-.09c.48-.21,1-.43,1.44-.68l.14-.07c.49-.26,1-.54,1.45-.84h0c.47-.3.93-.62,1.39-1l.08,0,.15.14c.59.59,1.17,1.18,1.73,1.78l.31.33c.57.6,1.12,1.21,1.65,1.82l.06.07c.55.63,1.07,1.25,1.58,1.89.1.11.19.23.29.35.49.61,1,1.23,1.42,1.85l.1.13-.43.39-.72.63-.86.74-.72.59-.87.69-.71.56-.89.65-.7.51-.92.63-.68.46-1,.61c-.21.13-.42.27-.64.39s-.7.42-1,.62l-.55.31c-.48.27-1,.52-1.45.76l-.16.09c-.53.26-1.07.52-1.61.76l-.48.2q-.57.26-1.14.48l-.61.23-1,.37-.67.22-1,.3-.71.2-.92.24-.72.16-.91.2-.73.13-.9.14-.74.1-.48,0a24.06,24.06,0,0,1-2.76-11.16A24.34,24.34,0,0,1,29.68,39.57ZM33.07,59c.53-.08,1.06-.16,1.59-.26l.16,0,1.53-.33.59-.14L38,58l.67-.2,1-.32.7-.24,1-.36.71-.28,1-.41.7-.31,1-.47.67-.32,1.07-.56.6-.32c.45-.25.91-.52,1.36-.79l.29-.16c.55-.33,1.1-.68,1.64-1l.51-.34c.38-.25.76-.51,1.13-.78l.63-.45c.34-.25.68-.49,1-.75l.67-.51,1-.77L56,48,57,47.2l.67-.59L58,46.3l0,.06c.42.61.81,1.23,1.19,1.85l.25.41c.37.62.73,1.24,1.07,1.86l.09.16q.48.88.9,1.77c.07.13.13.26.19.39.29.61.57,1.23.83,1.84a.69.69,0,0,1,0,.13l-.07,0-.37.24-.65.42-.4.29-.58.43-.39.33-.54.45-.39.34-.5.48c-.13.12-.25.24-.37.37s-.33.34-.49.52l-.33.37c-.17.19-.33.38-.49.58s-.2.23-.29.35l-.54.72L56,61c-.23.33-.45.67-.67,1l-.17.28c-.15.26-.31.52-.45.78s-.15.28-.22.42-.24.45-.35.68-.15.31-.22.47l-.3.67c-.07.16-.14.33-.2.5s-.18.45-.26.67L53,67c-.08.23-.16.46-.23.7l-.15.52c-.07.24-.14.48-.2.73s-.08.34-.13.52a.94.94,0,0,1,0,.16A24.3,24.3,0,0,1,33.07,59Zm34.67,5.72c0-.09,0-.18,0-.27-.06-.58-.14-1.17-.24-1.76l0-.22c-.11-.64-.25-1.29-.4-1.94,0-.17-.08-.34-.12-.51-.13-.55-.28-1.11-.44-1.66L66.38,58c-.2-.64-.41-1.29-.64-1.94a.85.85,0,0,0-.06-.17l.28-.13c.24-.1.47-.21.71-.3l.42-.17.73-.25.42-.13L69,54.7l.39-.1.93-.19.25,0c.39-.07.78-.12,1.17-.17l.4,0,.8-.06H74.1c.38,0,.76,0,1.14.05l.37,0h.09A24.16,24.16,0,0,1,67.74,64.72Z"/><path class="cls-1" d="M23.93,36.07c.4-.88.82-1.75,1.28-2.59L23.47,31.8l5.71-5.69.59.61c.59-.71,1.21-1.39,1.84-2.07C28.78,21.76,27,19.92,27,19.92h0c-.06-.06-.11-.13-.18-.19a6.85,6.85,0,0,0-5.55-1.93A7.82,7.82,0,0,0,19,10.37,12,12,0,0,0,9.36,6.68C4.39,6.14,2.66,0,2.66,0c-8,11.4,4.72,21.68,4.72,21.68a8.39,8.39,0,0,0,7.79,2.09,6.75,6.75,0,0,0,1.92,5.62l.2.17h0S19.94,32.23,23.93,36.07ZM19,21.68a4.15,4.15,0,0,1,5.78,0l2.11,2.13.38.39-5.76,5.74-.38-.38L19,27.44a4,4,0,0,1-1.2-2.83A4.15,4.15,0,0,1,19,21.68Zm-1.88-1.91c-3.62,3.61-8.06-.14-8.06-.14s-6.45-5.52-6.45-12a9.26,9.26,0,0,1,.16-1.75A10.46,10.46,0,0,0,9.36,9.35a10,10,0,0,1,7.79,2.94A5.16,5.16,0,0,1,18.76,16,5.24,5.24,0,0,1,17.16,19.77Z"/><path class="cls-1" d="M88,29.57h0a1.54,1.54,0,0,0,.19-.17,6.75,6.75,0,0,0,1.93-5.62,8.39,8.39,0,0,0,7.79-2.09S110.66,11.4,102.62,0c0,0-1.73,6.14-6.7,6.68a12,12,0,0,0-9.66,3.69,7.8,7.8,0,0,0-2.19,7.44,6.87,6.87,0,0,0-5.56,1.93l-.17.19h0s-1.83,1.84-4.66,4.73c.63.68,1.25,1.36,1.84,2.07l.59-.61,5.71,5.69c-.54.51-1.12,1.08-1.74,1.68.46.84.88,1.71,1.28,2.59C85.34,32.23,88,29.57,88,29.57Zm-.53-5a4,4,0,0,1-1.2,2.83l-2.16,2.12-.38.38L78,24.2l.38-.39,2.11-2.13a4.15,4.15,0,0,1,5.78,0A4.15,4.15,0,0,1,87.47,24.61Zm-1-8.57a5.16,5.16,0,0,1,1.61-3.75,10,10,0,0,1,7.79-2.94,10.46,10.46,0,0,0,6.55-3.49,9.26,9.26,0,0,1,.16,1.75c0,6.5-6.39,12-6.45,12s-4.44,3.75-8.06.14A5.24,5.24,0,0,1,86.52,16Z"/></g></g></svg>