<svg xmlns="http://www.w3.org/2000/svg" viewBox="0 0 38.43 38.34"><defs><style>.cls-1{fill:#2e3192;}</style></defs><title>datePicker01_icon</title><g id="Layer_2" data-name="Layer 2"><g id="Layer_1-2" data-name="Layer 1"><g id="Icon-Calendar"><path id="Fill-133" class="cls-1" d="M34.43,38.34H3.83A3.86,3.86,0,0,1,0,34.52V6.43C0,4.35,1.39,2.61,3.22,2.61H5.13V5.13H3.22c-.26,0-.61.52-.61,1.3V34.52a1.34,1.34,0,0,0,1.3,1.3H34.52a1.34,1.34,0,0,0,1.3-1.3V6.43c0-.78-.43-1.3-.61-1.3H33.3V2.61h1.91c1.74,0,3.22,1.74,3.22,3.82V34.52a4.13,4.13,0,0,1-4,3.82"/><path id="Fill-134" class="cls-1" d="M9,7.74A1.34,1.34,0,0,1,7.65,6.43V1.3a1.31,1.31,0,0,1,2.61,0V6.43A1.41,1.41,0,0,1,9,7.74"/><path id="Fill-135" class="cls-1" d="M29.3,7.74A1.34,1.34,0,0,1,28,6.43V1.3a1.31,1.31,0,0,1,2.61,0V6.43A1.34,1.34,0,0,1,29.3,7.74"/><polygon id="Fill-136" class="cls-1" points="12.78 2.61 25.48 2.61 25.48 5.22 12.78 5.22 12.78 2.61"/><polygon id="Fill-137" class="cls-1" points="2.52 10.26 35.73 10.26 35.73 12.87 2.52 12.87 2.52 10.26"/><polygon id="Fill-142" class="cls-1" points="15.43 15.39 22.83 15.39 22.83 22.55 15.43 22.55 15.43 15.39"/><polygon id="Fill-142-2" data-name="Fill-142" class="cls-1" points="24.47 15.39 31.88 15.39 31.88 22.55 24.47 22.55 24.47 15.39"/><polygon id="Fill-142-3" data-name="Fill-142" class="cls-1" points="15.43 24.76 22.83 24.76 22.83 31.92 15.43 31.92 15.43 24.76"/><polygon id="Fill-142-4" data-name="Fill-142" class="cls-1" points="24.47 24.76 31.88 24.76 31.88 31.92 24.47 31.92 24.47 24.76"/><polygon id="Fill-142-5" data-name="Fill-142" class="cls-1" points="6.73 24.76 14.14 24.76 14.14 31.92 6.73 31.92 6.73 24.76"/></g></g></g></svg>