<svg xmlns="http://www.w3.org/2000/svg" viewBox="0 0 46.98 62.02"><defs><style>.cls-1{fill:#2e3192;fill-rule:evenodd;}</style></defs><title>documents_icon</title><g id="Layer_2" data-name="Layer 2"><g id="Layer_1-2" data-name="Layer 1"><path class="cls-1" d="M36.66,3.33v5a2.23,2.23,0,0,0,2.21,2.24h5.22ZM34.44,2.22H13.31A2.22,2.22,0,0,0,11.1,4.43V48.7a2.23,2.23,0,0,0,2.22,2.21H42.54a2.21,2.21,0,0,0,2.22-2.2V12.76H38.87a4.42,4.42,0,0,1-4.43-4.45ZM8.88,6.66A2.23,2.23,0,0,0,6.66,8.87V53.14a2.22,2.22,0,0,0,2.22,2.21H38.1a2.23,2.23,0,0,0,2.22-2.21h-27a4.44,4.44,0,0,1-4.44-4.45v-42ZM4.44,11.1a2.23,2.23,0,0,0-2.22,2.21V57.59A2.23,2.23,0,0,0,4.44,59.8H33.66a2.24,2.24,0,0,0,2.22-2.21h-27a4.45,4.45,0,0,1-4.44-4.46v-42Zm0-2.21h0A4.45,4.45,0,0,0,0,13.34V57.56A4.44,4.44,0,0,0,4.43,62H33.66a4.45,4.45,0,0,0,4.44-4.44,4.45,4.45,0,0,0,4.44-4.45A4.44,4.44,0,0,0,47,48.71V10.54L36.66,0H13.33A4.46,4.46,0,0,0,8.88,4.44,4.45,4.45,0,0,0,4.44,8.88h0Zm33.8,18.28H14.46V25.55H38.23ZM38,17.33H14.23V14.56H38Zm.05,12.75H14.28V28.47H38.06ZM37.89,33H14.11V31.39H37.89Zm0,2.81H14.11V34.19H37.89Zm0,3.14H14.11V37.33H37.89Z"/></g></g></svg>