<svg xmlns="http://www.w3.org/2000/svg" viewBox="0 0 75.17 75"><defs><style>.cls-1{fill:#2e3192;}</style></defs><title>events_icon</title><g id="Layer_2" data-name="Layer 2"><g id="Layer_1-2" data-name="Layer 1"><g id="Icon-Star"><path id="Fill-5" class="cls-1" d="M44.84,61.42a1.07,1.07,0,0,1-.38-.1l-7.2-5.22-7.21,5.22a.65.65,0,0,1-.75,0,.62.62,0,0,1-.22-.7l2.75-8.44L24.62,47a.61.61,0,0,1-.21-.7.62.62,0,0,1,.59-.43h8.87l2.74-8.44A.63.63,0,0,1,37.2,37a.58.58,0,0,1,.59.43l2.75,8.44h8.87a.58.58,0,0,1,.59.43.59.59,0,0,1-.21.7l-7.21,5.22,2.74,8.44a.59.59,0,0,1-.21.7s-.16.1-.27.1ZM37.26,54.6a1,1,0,0,1,.37.1l6,4.3-2.26-7a.6.6,0,0,1,.22-.7l6-4.3H40.16a.58.58,0,0,1-.59-.43l-2.26-7-2.26,7a.63.63,0,0,1-.59.43H27l6,4.3a.62.62,0,0,1,.21.7L31,59l6-4.3a.64.64,0,0,1,.33-.1Z"/></g><path class="cls-1" d="M27.46,39.1s-8.56-10.91-14-7.79V35.2C13.44,29,27.46,39.1,27.46,39.1Z"/><path class="cls-1" d="M44.59,39.1s8.57-10.91,14-7.79V35.2C58.61,29,44.59,39.1,44.59,39.1Z"/><path class="cls-1" d="M68.88,5.1H65.14V10h3.74c.34,0,1.19,1,1.19,2.56V67.52a2.61,2.61,0,0,1-2.55,2.55H7.65A2.61,2.61,0,0,1,5.1,67.52V25.17H69.9v-5.1H5.1V12.59c0-1.54.68-2.56,1.19-2.56H10V5.1H6.29C2.72,5.1,0,8.5,0,12.59V67.52A7.55,7.55,0,0,0,7.48,75H67.35a8.09,8.09,0,0,0,7.82-7.48V12.59C75.17,8.5,72.28,5.1,68.88,5.1Z"/><path class="cls-1" d="M17.52,15.14a2.74,2.74,0,0,0,2.55-2.55v-10a2.55,2.55,0,0,0-5.1,0v10A2.61,2.61,0,0,0,17.52,15.14Z"/><path class="cls-1" d="M57.31,15.14a2.61,2.61,0,0,0,2.55-2.55v-10a2.55,2.55,0,1,0-5.1,0v10A2.61,2.61,0,0,0,57.31,15.14Z"/><rect class="cls-1" x="25" y="5.1" width="24.83" height="5.1"/></g></g></svg>