<svg xmlns="http://www.w3.org/2000/svg" viewBox="0 0 75 75"><defs><style>.cls-1{fill:#2e3192;}</style></defs><title>exams_icon</title><g id="Layer_2" data-name="Layer 2"><g id="Layer_1-2" data-name="Layer 1"><path class="cls-1" d="M47.18,0h-46A1.21,1.21,0,0,0,0,1.21V73.79A1.21,1.21,0,0,0,1.21,75h46a1.21,1.21,0,0,0,1.21-1.21V1.21A1.21,1.21,0,0,0,47.18,0Zm-2,71.76H3.24V3.24h41.9Z"/><path class="cls-1" d="M8.47,30h4.84a1.22,1.22,0,0,0,1.21-1.21V24a1.21,1.21,0,0,0-1.21-1.21H8.47A1.21,1.21,0,0,0,7.26,24v4.84A1.21,1.21,0,0,0,8.47,30Zm1.21-4.84H12.1V27.6H9.68Z"/><path class="cls-1" d="M8.47,39.69h4.84a1.21,1.21,0,0,0,1.21-1.21V33.64a1.21,1.21,0,0,0-1.21-1.2H8.47a1.21,1.21,0,0,0-1.21,1.2v4.84A1.21,1.21,0,0,0,8.47,39.69Zm1.21-4.84H12.1v2.42H9.68Z"/><path class="cls-1" d="M8.47,49.37h4.84a1.21,1.21,0,0,0,1.21-1.21V43.32a1.21,1.21,0,0,0-1.21-1.21H8.47a1.21,1.21,0,0,0-1.21,1.21v4.84A1.21,1.21,0,0,0,8.47,49.37Zm1.21-4.84H12.1V47H9.68Z"/><path class="cls-1" d="M8.47,59.05h4.84a1.21,1.21,0,0,0,1.21-1.21V53a1.21,1.21,0,0,0-1.21-1.21H8.47A1.21,1.21,0,0,0,7.26,53v4.84A1.21,1.21,0,0,0,8.47,59.05Zm1.21-4.84H12.1v2.42H9.68Z"/><rect class="cls-1" x="12.1" y="8.96" width="24.19" height="2.42"/><rect class="cls-1" x="16.94" y="13.8" width="13.31" height="2.42"/><rect class="cls-1" x="19.35" y="25.18" width="21.77" height="2.42"/><rect class="cls-1" x="19.35" y="34.85" width="21.77" height="2.42"/><rect class="cls-1" x="19.35" y="44.53" width="21.77" height="2.42"/><rect class="cls-1" x="19.35" y="54.21" width="21.77" height="2.42"/><path class="cls-1" d="M59.22,8.12a1.21,1.21,0,0,0-2.31,0l-3.63,12.1a1,1,0,0,0-.05.34V73.79A1.21,1.21,0,0,0,54.44,75h7.25a1.21,1.21,0,0,0,1.21-1.21V20.56a1,1,0,0,0,0-.34Zm-1.16,4.56,2,6.67h-4Zm2.42,59.9H55.65V67.74h4.83Zm0-7.26H55.65V21.77h4.83Z"/><path class="cls-1" d="M73.79,50.81V12.1a1.13,1.13,0,0,0-.09-.45L71.28,5.6A1.21,1.21,0,0,0,69,5.6l-2.42,6.05a1.13,1.13,0,0,0-.09.45V50.81A1.21,1.21,0,0,0,65.32,52V66.53a1.21,1.21,0,0,0,1.21,1.21v6.05A1.21,1.21,0,0,0,67.74,75h4.84a1.21,1.21,0,0,0,1.21-1.21V67.74A1.21,1.21,0,0,0,75,66.53V52A1.21,1.21,0,0,0,73.79,50.81ZM70.16,9.3l1.12,2.8H69ZM69,14.52h2.42V50.81H69Zm2.42,58.06H69V67.74h2.42Zm1.21-7.26H67.74V53.23h4.84Z"/></g></g></svg>