<svg xmlns="http://www.w3.org/2000/svg" viewBox="0 0 85.11 75"><defs><style>.cls-1{fill:#fff;}</style></defs><title>hAchievements_icon</title><g id="Layer_2" data-name="Layer 2"><g id="Layer_1-2" data-name="Layer 1"><g id="Icon-Trophy"><path id="Fill-1" class="cls-1" d="M51.42,48.4C58.87,42.73,70,34,70,2.48V0H14.89V2.48c0,31.74,11.17,40.25,18.62,45.92,4.26,3.37,6.38,5.15,6.38,9.05v7.62c-4.07.36-8,2-9.39,5H24.82a5,5,0,0,0-5,5h45a5,5,0,0,0-5-5H54.26c-1.42-3-5.32-4.44-9.4-5V57.45c.18-4.08,2.3-5.85,6.56-9.05Zm-8.87,1.42A28,28,0,0,0,36.7,44.5C30,39.18,20.57,32.09,20,5h45C64.54,32.09,55.32,39.18,48.4,44.5a28.51,28.51,0,0,0-5.85,5.32Z"/><path id="Fill-2" class="cls-1" d="M27.13,42.38C26.77,42.38,0,36.7,0,7.45V5H17.55v5H5.14C6.56,33,27.84,37.41,28,37.59l-.88,4.79"/><path id="Fill-3" class="cls-1" d="M58,42.38l-1.07-5c.89-.18,21.46-4.61,22.88-27.66H67.38v-5H85.11V7.27C85.11,36.7,58.33,42.38,58,42.38"/></g></g></g></svg>