<svg xmlns="http://www.w3.org/2000/svg" viewBox="0 0 40.32 33"><title>Asset 18</title><g id="Layer_2" data-name="Layer 2"><g id="Layer_1-2" data-name="Layer 1"><path d="M38.58,4H1.74C.78,4,0,3.57,0,3V1C0,.43.78,0,1.74,0H38.58c1,0,1.74.43,1.74,1V3C40.32,3.57,39.54,4,38.58,4Z"/><path d="M38.58,18H1.74C.78,18,0,17.56,0,17v-2.1c0-.55.78-1,1.74-1H38.58c1,0,1.74.44,1.74,1V17C40.32,17.56,39.54,18,38.58,18Z"/><path d="M38.58,33H1.74C.78,33,0,32.55,0,32V29.85c0-.56.78-1,1.74-1H38.58c1,0,1.74.45,1.74,1V32C40.32,32.55,39.54,33,38.58,33Z"/></g></g></svg>