<svg xmlns="http://www.w3.org/2000/svg" viewBox="0 0 75.17 75"><defs><style>.cls-1{fill:#fff;}</style></defs><title>hAttendance_icon</title><g id="Layer_2" data-name="Layer 2"><g id="Layer_1-2" data-name="Layer 1"><path class="cls-1" d="M68.88,5.1H65.14V10h3.74c.34,0,1.19,1,1.19,2.56V67.52a2.61,2.61,0,0,1-2.55,2.55H7.65A2.61,2.61,0,0,1,5.1,67.52V25.17H69.9v-5.1H5.1V12.59c0-1.54.68-2.56,1.19-2.56H10V5.1H6.29C2.72,5.1,0,8.5,0,12.59V67.52A7.55,7.55,0,0,0,7.48,75H67.35a8.09,8.09,0,0,0,7.82-7.48V12.59C75.17,8.5,72.28,5.1,68.88,5.1Z"/><path class="cls-1" d="M17.52,15.14a2.74,2.74,0,0,0,2.55-2.55v-10a2.55,2.55,0,0,0-5.1,0v10A2.61,2.61,0,0,0,17.52,15.14Z"/><path class="cls-1" d="M57.31,15.14a2.61,2.61,0,0,0,2.55-2.55v-10a2.55,2.55,0,1,0-5.1,0v10A2.61,2.61,0,0,0,57.31,15.14Z"/><rect class="cls-1" x="25" y="5.1" width="24.83" height="5.1"/><polygon class="cls-1" points="15.48 39.8 12.41 42.86 32.65 63.27 62.41 33.5 59.35 30.44 32.65 57.14 15.48 39.8"/></g></g></svg>