<svg xmlns="http://www.w3.org/2000/svg" viewBox="0 0 58 74.8"><defs><style>.cls-1{fill:#fff;}</style></defs><title>hClasTime_icon</title><g id="Layer_2" data-name="Layer 2"><g id="Layer_1-2" data-name="Layer 1"><path class="cls-1" d="M29,58A29,29,0,1,0,0,29,29,29,0,0,0,29,58ZM29,3.5A25.5,25.5,0,1,1,3.5,29,25.5,25.5,0,0,1,29,3.5Z"/><polygon class="cls-1" points="30.27 9.96 27.73 9.96 27.73 27.73 15.03 27.73 15.03 30.27 30.27 30.27 30.27 9.96"/><path class="cls-1" d="M6.62,62.58A4.57,4.57,0,0,0,11,70a4.59,4.59,0,0,0,.64-8.8A4.52,4.52,0,0,0,6.62,62.58Zm6.54,2.89a3.11,3.11,0,0,1-2,2.87,3,3,0,0,1-3.42-1,3.07,3.07,0,0,1,2.9-4.92A3.08,3.08,0,0,1,13.16,65.47Z"/><path class="cls-1" d="M10.16,70.29a10.83,10.83,0,0,0-7.6,3.22c-.69.68.37,1.75,1.07,1.07a9.24,9.24,0,0,1,6.53-2.77,9.46,9.46,0,0,1,6.45,2.77c.71.68,1.77-.39,1.07-1.07A11,11,0,0,0,10.16,70.29Z"/><path class="cls-1" d="M23.36,62.58a4.65,4.65,0,0,0-.41,5.2,4.55,4.55,0,1,0,5.44-6.62A4.52,4.52,0,0,0,23.36,62.58Zm6.53,2.89a3.1,3.1,0,0,1-2,2.87,3,3,0,0,1-3.41-1,3,3,0,1,1,5.38-1.92Z"/><path class="cls-1" d="M26.91,70.29a10.81,10.81,0,0,0-7.6,3.22c-.71.68.36,1.75,1.06,1.07a9.26,9.26,0,0,1,6.54-2.77,9.47,9.47,0,0,1,6.45,2.77c.71.68,1.77-.39,1.07-1.07A11,11,0,0,0,26.91,70.29Z"/><path class="cls-1" d="M40.11,62.58a4.65,4.65,0,0,0-.41,5.2,4.53,4.53,0,0,0,8.45-2.31,4.63,4.63,0,0,0-3-4.31A4.5,4.5,0,0,0,40.11,62.58Zm6.53,2.89a3.1,3.1,0,0,1-2,2.87,3,3,0,0,1-3.42-1,3,3,0,1,1,5.39-1.92Z"/><path class="cls-1" d="M43.65,70.29a10.81,10.81,0,0,0-7.6,3.22c-.7.68.37,1.75,1.06,1.07a9.24,9.24,0,0,1,6.54-2.77,9.47,9.47,0,0,1,6.45,2.77c.7.68,1.77-.39,1.07-1.07A11.06,11.06,0,0,0,43.65,70.29Z"/></g></g></svg>