<svg xmlns="http://www.w3.org/2000/svg" viewBox="0 0 75 51.34"><defs><style>.cls-1{fill:#fff;}</style></defs><title>hCocurricular_icon</title><g id="Layer_2" data-name="Layer 2"><g id="Layer_1-2" data-name="Layer 1"><path class="cls-1" d="M40.51,13.71h0a20.09,20.09,0,0,0-2.67-.19A18.88,18.88,0,0,0,19.7,26.86h0a19.07,19.07,0,0,0-.83,5.57,18.93,18.93,0,0,0,19,18.91h.1a19,19,0,0,0,10-2.92h0a18.89,18.89,0,0,0-7.46-34.71Zm10.6,7.81a17,17,0,0,1,3.37,15.37,3,3,0,0,0-.31,0l-.45,0-.79,0h-.84l-.64,0-.36,0c-.23,0-.45,0-.68.09l-.29,0a14,14,0,0,0-1.92.44l-.26.08c-.22.07-.45.14-.67.23l-.33.12-.59.25-.19.08,0,0c-.2-.47-.42-.94-.65-1.41l-.15-.32c-.23-.46-.47-.93-.73-1.4l-.1-.18c-.24-.44-.5-.87-.76-1.3l-.16-.26c-.28-.46-.58-.92-.89-1.38l-.08-.12A59.1,59.1,0,0,0,51.11,21.52Zm-12,27.59.06-.21q.1-.37.24-.75l.06-.15c.07-.2.14-.39.22-.59s.07-.16.11-.25.13-.31.2-.46l.13-.27c.07-.15.15-.29.23-.44s.08-.17.13-.25l.27-.46.12-.2a13.9,13.9,0,0,1,.87-1.25l.15-.18.33-.4.19-.21.33-.35.2-.21.36-.34a1.54,1.54,0,0,1,.19-.17c.15-.14.3-.26.45-.39l.12-.1.6-.45.17-.11.36-.24v0s0,.1,0,.14c.09.27.17.53.25.79l.09.31.18.63.09.33.15.63.06.3c.06.27.11.54.16.8a.59.59,0,0,1,0,.13c.06.3.1.61.14.92a2.51,2.51,0,0,1,0,.27c0,.21.05.43.07.64l0,.34c0,.09,0,.19,0,.29A17.11,17.11,0,0,1,39,49.56Zm2.44-18.76,0-.05q-.5-.66-1-1.32l-.24-.28c-.35-.44-.72-.88-1.1-1.32l-.08-.09c-.36-.41-.74-.83-1.12-1.24l-.24-.26c-.4-.42-.81-.84-1.23-1.25l-.08-.09.08-.08c.28-.26.54-.53.79-.81v0c.26-.28.49-.57.72-.87l.13-.16c.21-.29.42-.59.62-.9l.11-.18c.2-.31.39-.64.56-1l0-.06c.17-.33.33-.66.48-1l.07-.16c.15-.34.28-.69.4-1a1.72,1.72,0,0,0,.07-.21c.12-.36.23-.72.32-1.09a.79.79,0,0,0,0-.13q.14-.54.24-1.08a.43.43,0,0,1,0-.11,17.16,17.16,0,0,1,8.76,4.61A58.9,58.9,0,0,1,41.59,30.35ZM37.84,15.27c.51,0,1,0,1.55.07a.52.52,0,0,1,0,.11q-.09.5-.21,1l0,0a10.31,10.31,0,0,1-.29,1l-.06.18c-.11.31-.23.62-.36.92l-.07.18c-.14.31-.29.61-.44.91l0,0c-.15.29-.32.57-.49.85l-.09.14c-.18.28-.37.54-.56.8l-.12.16q-.3.39-.63.75l-.08.09c-.21.23-.43.46-.66.67a.23.23,0,0,1-.07.07,59.18,59.18,0,0,0-6.56-5.34A17.21,17.21,0,0,1,37.84,15.27ZM27.1,19a54,54,0,0,1,6.73,5.37l-.11.09-.39.25-.59.38-.42.23-.61.31-.44.2-.63.25-.46.17-.66.2c-.16,0-.31.09-.47.12s-.47.11-.71.15-.29.07-.44.09l-.81.1-.38,0c-.4,0-.81.05-1.22.05s-.72,0-1.08,0l-.34,0-.75-.08-.39-.06-.73-.14-.37-.07-.16,0A17,17,0,0,1,27.1,19Zm-6,9.21.25,0,.44.1.78.14.45.07.82.09.39,0c.41,0,.81,0,1.21,0h0c.42,0,.84,0,1.25,0h.11c.4,0,.78-.08,1.17-.14l.16,0c.37-.06.74-.13,1.11-.22l.18,0c.36-.09.71-.19,1.06-.3l.18-.06c.35-.12.7-.24,1-.39l.15-.06c.35-.15.69-.31,1-.48L33,26.9c.35-.18.7-.38,1-.59h0c.33-.22.66-.44,1-.69l.06,0,.11.1c.42.42.83.84,1.23,1.27l.23.23c.4.43.79.86,1.17,1.3l0,.05c.39.44.76.89,1.13,1.34l.2.25q.53.66,1,1.32l.07.1-.31.27-.51.45-.62.53-.51.42c-.2.17-.41.33-.62.49l-.51.4-.63.46c-.16.13-.33.25-.5.37l-.65.44-.48.33-.69.43-.45.29-.76.43-.38.23c-.35.19-.69.37-1,.54l-.11.06c-.38.19-.77.37-1.15.54l-.34.15-.81.34-.44.16-.72.27-.48.15-.67.22-.51.14-.65.17-.52.12-.64.13-.53.1-.63.1-.53.07-.35,0a17.23,17.23,0,0,1-2-8A16.77,16.77,0,0,1,21.15,28.19ZM23.56,42c.38-.05.76-.12,1.13-.19l.11,0c.37-.07.73-.14,1.1-.23l.41-.1.79-.21.48-.14.72-.23.5-.17.7-.26.51-.2.7-.29.5-.22.71-.33.48-.23.76-.4.42-.23c.32-.18.65-.36,1-.56l.21-.11,1.17-.74.36-.24.81-.56.44-.32.72-.53.48-.37.69-.55.48-.4.68-.57.48-.42.25-.22,0,0c.29.43.57.87.84,1.31l.18.3c.27.44.53.88.77,1.32l.06.12c.23.42.44.84.64,1.25,0,.1.09.19.14.28.21.44.4.88.59,1.32a.36.36,0,0,0,0,.09l-.06,0-.26.17-.46.31-.29.2-.41.31-.28.23-.38.32-.28.25-.36.34-.26.26-.35.37-.24.26-.34.42-.21.25-.38.51a1.33,1.33,0,0,0-.14.19l-.48.72-.12.2c-.11.19-.22.37-.32.56a2.69,2.69,0,0,0-.16.29l-.25.49-.15.33c-.08.16-.15.32-.22.48l-.14.36-.19.48c0,.12-.08.24-.13.37s-.1.33-.16.49-.07.25-.11.38-.09.34-.13.51-.07.25-.1.37,0,.08,0,.12A17.3,17.3,0,0,1,23.56,42Zm24.7,4.07,0-.18c0-.42-.1-.84-.17-1.26l0-.15c-.07-.47-.17-.93-.28-1.39,0-.12,0-.24-.08-.36-.1-.4-.2-.79-.31-1.19a2.17,2.17,0,0,1-.07-.24c-.14-.46-.29-.93-.46-1.39a.56.56,0,0,0,0-.12l.2-.09.51-.22.3-.11.51-.18.3-.1.55-.15.28-.07a6.4,6.4,0,0,1,.66-.14l.17,0,.84-.11.28,0,.57,0h.83q.41,0,.81,0l.26,0h.07A17.22,17.22,0,0,1,48.26,46.1Z"/><path class="cls-1" d="M17.05,25.7c.28-.63.58-1.25.91-1.85l-1.24-1.2,4.07-4,.42.44c.42-.51.86-1,1.31-1.48-2-2.06-3.32-3.37-3.32-3.37h0l-.12-.13a4.86,4.86,0,0,0-4-1.38,5.59,5.59,0,0,0-1.56-5.3A8.55,8.55,0,0,0,6.67,4.76C3.12,4.38,1.89,0,1.89,0-3.83,8.12,5.26,15.44,5.26,15.44a5.94,5.94,0,0,0,5.55,1.49,4.82,4.82,0,0,0,1.37,4l.13.12h0S14.2,23,17.05,25.7ZM13.56,15.44a3,3,0,0,1,4.12,0L19.18,17l.28.28-4.11,4.09c-.08-.09-.19-.19-.27-.27l-1.54-1.51a2.86,2.86,0,0,1-.85-2A3,3,0,0,1,13.56,15.44Zm-1.34-1.35C9.65,16.65,6.48,14,6.48,14S1.89,10.05,1.89,5.42A6.53,6.53,0,0,1,2,4.17,7.43,7.43,0,0,0,6.67,6.66a7.14,7.14,0,0,1,5.55,2.09,3.7,3.7,0,0,1,1.14,2.67A3.74,3.74,0,0,1,12.22,14.09Z"/><path class="cls-1" d="M62.69,21.07h0l.13-.12a4.82,4.82,0,0,0,1.37-4,5.94,5.94,0,0,0,5.55-1.49S78.83,8.12,73.11,0c0,0-1.23,4.38-4.78,4.76a8.55,8.55,0,0,0-6.88,2.63,5.59,5.59,0,0,0-1.56,5.3,4.86,4.86,0,0,0-4,1.38l-.12.13h0s-1.31,1.31-3.32,3.37c.45.48.89,1,1.31,1.48l.42-.44,4.07,4L57,23.85c.33.6.63,1.22.91,1.85C60.8,23,62.69,21.07,62.69,21.07Zm-.38-3.54a2.86,2.86,0,0,1-.85,2l-1.54,1.51c-.08.08-.19.18-.27.27l-4.11-4.09.28-.28,1.5-1.52a3,3,0,0,1,4.12,0A3,3,0,0,1,62.31,17.53Zm-.67-6.11a3.7,3.7,0,0,1,1.14-2.67,7.14,7.14,0,0,1,5.55-2.09A7.43,7.43,0,0,0,73,4.17a6.53,6.53,0,0,1,.11,1.25c0,4.63-4.55,8.53-4.59,8.56s-3.17,2.67-5.74.11A3.74,3.74,0,0,1,61.64,11.42Z"/></g></g></svg>