<svg xmlns="http://www.w3.org/2000/svg" viewBox="0 0 75.17 75"><defs><style>.cls-1{fill:#fff;}</style></defs><title>hEvents_icon</title><g id="Layer_2" data-name="Layer 2"><g id="Layer_1-2" data-name="Layer 1"><path class="cls-1" d="M68.88,5.1H65.14V10h3.74c.34,0,1.19,1,1.19,2.56V67.52a2.61,2.61,0,0,1-2.55,2.55H7.65A2.61,2.61,0,0,1,5.1,67.52V25.17H69.9v-5.1H5.1V12.59c0-1.54.68-2.56,1.19-2.56H10V5.1H6.29C2.72,5.1,0,8.5,0,12.59V67.52A7.55,7.55,0,0,0,7.48,75H67.35a8.09,8.09,0,0,0,7.82-7.48V12.59C75.17,8.5,72.28,5.1,68.88,5.1Z"/><path class="cls-1" d="M17.52,15.14a2.74,2.74,0,0,0,2.55-2.55v-10a2.55,2.55,0,0,0-5.1,0v10A2.61,2.61,0,0,0,17.52,15.14Z"/><path class="cls-1" d="M57.31,15.14a2.61,2.61,0,0,0,2.55-2.55v-10a2.55,2.55,0,1,0-5.1,0v10A2.61,2.61,0,0,0,57.31,15.14Z"/><rect class="cls-1" x="25" y="5.1" width="24.83" height="5.1"/><g id="Icon-Star"><path id="Fill-5" class="cls-1" d="M45,61.48a1.09,1.09,0,0,1-.38-.11L37.4,56.14l-7.22,5.23a.66.66,0,0,1-.76,0,.61.61,0,0,1-.21-.7L32,52.21,24.73,47a.61.61,0,0,1-.21-.7.63.63,0,0,1,.59-.43H34l2.75-8.46a.64.64,0,0,1,.6-.43.59.59,0,0,1,.59.43l2.75,8.46h8.89a.58.58,0,0,1,.59.43A.59.59,0,0,1,50,47l-7.23,5.23,2.75,8.46a.59.59,0,0,1-.21.7c0,.05-.16.11-.27.11Zm-7.6-6.85a1.09,1.09,0,0,1,.38.11l6,4.31-2.27-7a.59.59,0,0,1,.22-.7l6-4.32H40.31a.58.58,0,0,1-.59-.43l-2.27-7-2.26,7a.63.63,0,0,1-.59.43H27.16l6,4.32a.62.62,0,0,1,.22.7l-2.27,7,6-4.31a.58.58,0,0,1,.32-.11Z"/></g><path class="cls-1" d="M27.58,39.1s-8.58-10.93-14-7.8v3.9C13.53,29,27.58,39.1,27.58,39.1Z"/><path class="cls-1" d="M44.75,39.1s8.59-10.93,14-7.8v3.9C58.8,29,44.75,39.1,44.75,39.1Z"/></g></g></svg>