<svg xmlns="http://www.w3.org/2000/svg" viewBox="0 0 52.78 78"><defs><style>.cls-1{fill:none;stroke:#fff;stroke-miterlimit:10;stroke-width:3px;}</style></defs><title>hHelp_icon</title><g id="Layer_2" data-name="Layer 2"><g id="Layer_1-2" data-name="Layer 1"><path class="cls-1" d="M27.46,1.5q11.38,0,17.61,5.38t6.21,14.36a20.7,20.7,0,0,1-2.66,10.55,40.66,40.66,0,0,1-8.31,9.61c-1.46,1.33-2.68,2.49-3.65,3.5a18.26,18.26,0,0,0-2.41,3A11.39,11.39,0,0,0,32.9,51a23.4,23.4,0,0,0-.63,3.55H19.84a34.8,34.8,0,0,1,.68-5,19.47,19.47,0,0,1,1.36-4.07,22.69,22.69,0,0,1,2.24-3.81,48.23,48.23,0,0,1,3.24-4q2.4-2.72,4.07-4.81a29.21,29.21,0,0,0,2.67-3.86,16.09,16.09,0,0,0,1.46-3.45A12.77,12.77,0,0,0,36,22.18q0-4.69-2.4-7.26c-1.61-1.7-4-2.56-7.11-2.56a9.33,9.33,0,0,0-7.31,3q-2.72,3-3,9.3H1.56a26.24,26.24,0,0,1,2.09-9.62A20.89,20.89,0,0,1,8.87,7.78,23.17,23.17,0,0,1,17,3.14,32,32,0,0,1,27.46,1.5ZM26.11,60.2a8.15,8.15,0,0,1,6,2.25,8.72,8.72,0,0,1,0,11.8,8.15,8.15,0,0,1-6,2.25,8,8,0,0,1-5.85-2.25,8.72,8.72,0,0,1,0-11.8A8,8,0,0,1,26.11,60.2Z"/></g></g></svg>