<svg xmlns="http://www.w3.org/2000/svg" viewBox="0 0 75 68.56"><defs><style>.cls-1{fill:#fff;}</style></defs><title>hLibrary_icon</title><g id="Layer_2" data-name="Layer 2"><g id="Layer_1-2" data-name="Layer 1"><path class="cls-1" d="M29.4,66.54,23.05,10a2.32,2.32,0,0,1,2.34-2.38l12.11-1a2.53,2.53,0,0,1,2.83,2l6.35,56.58a2.32,2.32,0,0,1-2.34,2.38l-12.11,1A2.52,2.52,0,0,1,29.4,66.54ZM25.84,9.91l6.32,56.25,11.73-.93L37.57,9Z"/><path class="cls-1" d="M45.25,66.93,38.81,9.59a1.92,1.92,0,0,1,1.92-2l13-1a2.07,2.07,0,0,1,2.33,1.62l6.44,57.34a1.91,1.91,0,0,1-1.92,2l-13,1A2.07,2.07,0,0,1,45.25,66.93Zm-3.6-57L48,66.16l11.72-.93L53.37,9Z"/><path class="cls-1" d="M61,66.38,54.68,10.14a2.5,2.5,0,0,1,2.51-2.57l8.43-.67a2.71,2.71,0,0,1,3,2.12L75,65.26a2.51,2.51,0,0,1-2.52,2.57L64,68.5A2.7,2.7,0,0,1,61,66.38ZM57.45,9.91l6.32,56.25,8.44-.67L65.89,9.24Z"/><path class="cls-1" d="M23.15,1.68A2.14,2.14,0,0,0,20.74,0L2,1.5a2,2,0,0,0-2,2L7.13,66.87a2.14,2.14,0,0,0,2.4,1.68l18.75-1.5a2,2,0,0,0,2-2Zm3.12,52.67L8.67,55.7,4.72,20.49l17.59-1.35Zm-5.84-52L22.05,16.8,4.45,18.15,2.84,3.79ZM9.85,66.16,8.94,58l17.59-1.35.91,8.07Z"/></g></g></svg>