<svg xmlns="http://www.w3.org/2000/svg" viewBox="0 0 78.12 75"><defs><style>.cls-1{fill:#fff;}</style></defs><title>hLogout_icon</title><g id="Layer_2" data-name="Layer 2"><g id="Layer_1-2" data-name="Layer 1"><g id="Icon-Share-Apple"><polyline id="Fill-74" class="cls-1" points="55.05 52.98 70.43 37.6 55.05 22.23 58.8 18.49 78.12 37.6 58.8 56.72 55.05 52.98"/><polygon id="Fill-75" class="cls-1" points="74.17 34.7 74.17 40.51 13.92 40.51 13.92 34.7 74.17 34.7"/><path id="Fill-76" class="cls-1" d="M0,66.27V8.73A8.78,8.78,0,0,1,8.73,0h31a8.78,8.78,0,0,1,8.73,8.73V28.88H42.59V8.73a2.84,2.84,0,0,0-2.91-2.91H8.73A2.83,2.83,0,0,0,5.82,8.73V66.27a2.83,2.83,0,0,0,2.91,2.91h31a2.84,2.84,0,0,0,2.91-2.91V46.12h5.82V66.27A8.78,8.78,0,0,1,39.68,75H8.73A8.78,8.78,0,0,1,0,66.27"/></g></g></g></svg>