<svg xmlns="http://www.w3.org/2000/svg" viewBox="0 0 78 68.54"><defs><style>.cls-1{fill:#fff;}</style></defs><title>hMessage_icon</title><g id="Layer_2" data-name="Layer 2"><g id="Layer_1-2" data-name="Layer 1"><path class="cls-1" d="M72.52,0h-67A5.49,5.49,0,0,0,0,5.48v42A5.49,5.49,0,0,0,5.48,53h8l6.6,15.54L24.37,53H72.52A5.49,5.49,0,0,0,78,47.52v-42A5.49,5.49,0,0,0,72.52,0ZM75,47.52A2.48,2.48,0,0,1,72.52,50H22.09l-2.63,9.46-4-9.46h-10A2.48,2.48,0,0,1,3,47.52v-42A2.48,2.48,0,0,1,5.48,3h67A2.48,2.48,0,0,1,75,5.48Z"/><rect class="cls-1" x="9.5" y="12.5" width="56.5" height="2.5"/><rect class="cls-1" x="9.5" y="18.5" width="56.5" height="2.5"/><rect class="cls-1" x="9.5" y="24.5" width="44.5" height="2.5"/></g></g></svg>