<svg xmlns="http://www.w3.org/2000/svg" viewBox="0 0 71.06 75"><defs><style>.cls-1{fill:#fff;}</style></defs><title>hMyschool_icon</title><g id="Layer_2" data-name="Layer 2"><g id="Layer_1-2" data-name="Layer 1"><path class="cls-1" d="M69.45,71.78H65.39V36.83h3.68a1.61,1.61,0,0,0,0-3.22H65.39V14a1.61,1.61,0,0,0-1.61-1.61H37V10.09H50.49A1.61,1.61,0,0,0,52.1,8.48V1.61A1.61,1.61,0,0,0,50.49,0H35.41A1.61,1.61,0,0,0,33.8,1.61V12.38H7A1.61,1.61,0,0,0,5.42,14V33.61H1.61a1.61,1.61,0,1,0,0,3.22H6.05V64.75a1.61,1.61,0,0,0,3.22,0V36.83h5.28v35H9.27v-7a1.61,1.61,0,0,0-3.22,0v7H2A1.61,1.61,0,1,0,2,75H69.45a1.61,1.61,0,0,0,0-3.22ZM37,3.22H48.88V6.87H37ZM8.64,33.61v-18H62.17v18H8.64Zm9.13,3.22h35.9v35H45.74V49.2a10,10,0,0,0-20,0V71.78H17.77V36.83ZM42.52,49.2v1H37.33V42.6A6.81,6.81,0,0,1,42.52,49.2Zm-8.41,1H28.93v-1a6.8,6.8,0,0,1,5.18-6.6Zm-5.19,3.22h5.19v7.27H28.92Zm8.41,0h5.19v7.27H37.33ZM28.92,64h5.19v7.83H28.92Zm8.41,7.83V64h5.19v7.83Zm19.56,0V36.83h5.28v35Z"/><path class="cls-1" d="M25.33,28V21.2a1.61,1.61,0,0,0-1.61-1.61H13.52a1.61,1.61,0,0,0-1.61,1.61V28a1.61,1.61,0,0,0,1.61,1.61h10.2A1.61,1.61,0,0,0,25.33,28Zm-3.22-1.61h-7V22.81h7Z"/><path class="cls-1" d="M30.3,29.61H40.51A1.61,1.61,0,0,0,42.12,28V21.2a1.61,1.61,0,0,0-1.61-1.61H30.3a1.61,1.61,0,0,0-1.61,1.61V28A1.61,1.61,0,0,0,30.3,29.61Zm1.61-6.8h7v3.58h-7Z"/><path class="cls-1" d="M47.09,29.61H57.3A1.62,1.62,0,0,0,58.91,28V21.2a1.62,1.62,0,0,0-1.61-1.61H47.09a1.61,1.61,0,0,0-1.61,1.61V28A1.61,1.61,0,0,0,47.09,29.61Zm1.61-6.8h7v3.58h-7Z"/></g></g></svg>