<svg xmlns="http://www.w3.org/2000/svg" viewBox="0 0 75 41.84"><defs><style>.cls-1{fill:#fff;}</style></defs><title>hPta_icon</title><g id="Layer_2" data-name="Layer 2"><g id="Layer_1-2" data-name="Layer 1"><path class="cls-1" d="M73.28,25a11,11,0,0,0-5.8-4.71A8.52,8.52,0,0,0,64.44,9a7.66,7.66,0,0,0-10.71,3.21,8.66,8.66,0,0,0,0,8.07,10.45,10.45,0,0,0-2.3,1.13,14.52,14.52,0,0,0-5.69-2.74,11.78,11.78,0,0,0-1.29-16A10.4,10.4,0,0,0,29.26,4a11.82,11.82,0,0,0,0,14.65,14.52,14.52,0,0,0-5.69,2.74,10.6,10.6,0,0,0-2.29-1.13A8.54,8.54,0,0,0,18.23,9,7.68,7.68,0,0,0,7.52,12.23a8.64,8.64,0,0,0,0,8.06,10.94,10.94,0,0,0-5.41,4.14,12.15,12.15,0,0,0-1.75,3.8A11.89,11.89,0,0,0,0,31.14V32A4.8,4.8,0,0,0,4.67,36.9h13a6.31,6.31,0,0,0,6,4.94H51.26a6.31,6.31,0,0,0,6-4.94h13A4.8,4.8,0,0,0,75,32v-.84a11.89,11.89,0,0,0-.36-2.91A10.21,10.21,0,0,0,73.28,25ZM60.6,10.26a5.86,5.86,0,0,1,5.71,6,5.86,5.86,0,0,1-5.69,6h0a5.86,5.86,0,0,1-5.7-6A5.86,5.86,0,0,1,60.6,10.26ZM29,11.36a8.77,8.77,0,0,1,8.53-9,8.78,8.78,0,0,1,8.56,9,8.8,8.8,0,0,1-8.54,9h0A8.8,8.8,0,0,1,29,11.36Zm-14.57-1.1a5.86,5.86,0,0,1,5.71,6,5.86,5.86,0,0,1-5.69,6h0a5.87,5.87,0,0,1-5.7-6A5.86,5.86,0,0,1,14.39,10.26Zm3,23.71v1H4.82a3,3,0,0,1-2.9-3h0V31.1A9.36,9.36,0,0,1,8.66,22a7.41,7.41,0,0,0,10.85.56c.18-.18.36-.36.53-.56a8.71,8.71,0,0,1,1.93.79A15.82,15.82,0,0,0,17.39,34Zm33.3,5.66H24.32A4.47,4.47,0,0,1,20,35.05V33.91A13.19,13.19,0,0,1,31.05,20.63a9.9,9.9,0,0,0,12.89,0A13.22,13.22,0,0,1,55,33.92v1.13A4.47,4.47,0,0,1,50.69,39.63Zm22.41-7.7a3,3,0,0,1-2.9,3H57.61V34A15.79,15.79,0,0,0,53,22.77,8.79,8.79,0,0,1,55,22a7.42,7.42,0,0,0,10.86.56,7.14,7.14,0,0,0,.54-.56,9.38,9.38,0,0,1,6.74,9.14Z"/></g></g></svg>