<svg xmlns="http://www.w3.org/2000/svg" viewBox="0 0 75.65 75"><defs><style>.cls-1{fill:#fff;}</style></defs><title>hQuickNotes_icon</title><g id="Layer_2" data-name="Layer 2"><g id="Layer_1-2" data-name="Layer 1"><g id="Layer_1-3" data-name="Layer 1"><rect class="cls-1" x="12.5" y="20.31" width="34.37" height="3.12"/><rect class="cls-1" x="12.5" y="29.69" width="34.37" height="3.12"/><rect class="cls-1" x="12.5" y="39.06" width="26.56" height="3.13"/><rect class="cls-1" x="12.5" y="48.44" width="18.75" height="3.12"/><rect class="cls-1" x="12.5" y="57.81" width="18.75" height="3.12"/><path class="cls-1" d="M59.37,27.48V11.85L47.52,0H0V75H59.37V47.52L75.65,31.25l-10-10Zm-1.56,6,5.61,5.6L44.67,57.81H39.06v-5.6ZM48.44,5.33,54,10.94h-5.6Zm7.81,66.55H3.12V3.12H45.31V14.06H56.25V30.6L35.94,50.92v10H46L56.25,50.65Zm9.37-35L60,31.25l5.6-5.6,5.61,5.6Z"/></g></g></g></svg>