<svg xmlns="http://www.w3.org/2000/svg" viewBox="0 0 75 75"><defs><style>.cls-1{fill:#fff;}</style></defs><title>hSettings_icon</title><g id="Layer_2" data-name="Layer 2"><g id="Layer_1-2" data-name="Layer 1"><g id="Icon-Gear"><path id="Fill-45" class="cls-1" d="M37.5,55.15A17.81,17.81,0,1,1,55.3,37.34,17.89,17.89,0,0,1,37.5,55.15Zm0-31.83a14,14,0,1,0,14,14,14,14,0,0,0-14-14Z"/><path id="Fill-46" class="cls-1" d="M42.86,75H32.14l-3-9.14a38,38,0,0,1-5.83-2.36l-8.67,4.41L7.09,60.35l4.41-8.67a26.69,26.69,0,0,1-2.36-5.83L0,42.86V32.14l9.14-3a38,38,0,0,1,2.36-5.83L7.09,14.65l7.56-7.56,8.67,4.41a26.69,26.69,0,0,1,5.83-2.36l3-9.14H42.86l3,9.14a38,38,0,0,1,5.83,2.36l8.67-4.41,7.56,7.56L63.5,23.32a26.69,26.69,0,0,1,2.36,5.83l9.14,3V42.86l-9.14,3a38,38,0,0,1-2.36,5.83l4.41,8.67-7.56,7.56L51.68,63.5a26.69,26.69,0,0,1-5.83,2.36l-3,9.14Zm-8-3.62h5.36L43,62.87l1-.32a28.27,28.27,0,0,0,6.78-2.83l.94-.48,8,4.1,3.78-3.78-4.1-8,.47-.94a25.69,25.69,0,0,0,2.84-6.78l.32-.94L71.53,40V34.66L63,31.83l-.32-.95a25.76,25.76,0,0,0-2.84-6.77l-.47-.95,4.1-8-3.78-3.79-8,4.1L50.74,15A25.83,25.83,0,0,0,44,12.13l-1-.31L40.18,3.31H34.82L32,11.82l-.95.31A28.3,28.3,0,0,0,24.26,15l-.94.47-8-4.1L11.5,15.13l4.1,8-.47.95a25.76,25.76,0,0,0-2.84,6.77l-.32.95-8.5,2.83V40L12,42.86l.32.94a25.69,25.69,0,0,0,2.84,6.78l.47.94-4.1,8,3.78,3.78,8-4.1.94.48A25.81,25.81,0,0,0,31,62.55l.95.32,2.83,8.51Z"/></g></g></g></svg>