<svg xmlns="http://www.w3.org/2000/svg" viewBox="0 0 87.75 67.61"><defs><style>.cls-1{fill:#fff;}</style></defs><title>hSpecialCare_icon</title><g id="Layer_2" data-name="Layer 2"><g id="Layer_1-2" data-name="Layer 1"><path class="cls-1" d="M60,33.24a13.24,13.24,0,0,1-4.28-.49c-2.84-1.14-11-6.68-12.51-7.71-1.78-.3-11.78-2-14-2.33-3-.42-4.21-3.25-3.86-5.69a5.56,5.56,0,0,1,.18-.83c-8,3.19-21,7.79-23.79,5-1.44-1.43-2-2.91-1.67-4.38.61-2.74,4.11-4.08,4.5-4.23L42.09.06C43.94-.55,61.57,3.5,71.92,6l-.58,2.44c-12.53-3-26.7-6.09-28.53-5.95L5.42,14.93c-.64.24-2.62,1.21-2.88,2.4-.13.59.21,1.28,1,2.06C5,20.62,16,17.51,27.73,12.58l.29-.12,18.16,1.82-.2,2.5c-.53,0-13.14-.77-16.16-1.2a1.46,1.46,0,0,0-1.3.36,2.49,2.49,0,0,0-.67,1.43c-.14,1,.2,2.64,1.73,2.86,2.42.34,13.83,2.3,14.31,2.38l.27.05.23.16c2.61,1.79,9.91,6.66,12.24,7.6,1.94.77,10.12,0,14.82-.68l.36,2.49A97.84,97.84,0,0,1,60,33.24ZM42.89,2.44h0Z"/><path class="cls-1" d="M85,35.81H73.13a2.76,2.76,0,0,1-2.76-2.75V5.73A2.77,2.77,0,0,1,73.13,3H85a2.76,2.76,0,0,1,2.75,2.76V33.06A2.76,2.76,0,0,1,85,35.81ZM73.13,5.48a.25.25,0,0,0-.25.25V33.06a.25.25,0,0,0,.25.24H85a.24.24,0,0,0,.24-.24V5.73A.25.25,0,0,0,85,5.48Z"/><path class="cls-1" d="M34.69,41.22a8.79,8.79,0,0,1-5.58,8.12,8.59,8.59,0,0,1-9.67-2.67c-4.89-6.08.57-15.4,8.22-13.94a8.68,8.68,0,0,1,7,8.49C34.75,44,39,44,39,41.22A13.11,13.11,0,0,0,30.42,29a12.77,12.77,0,0,0-14.22,4A13.17,13.17,0,0,0,15,47.76,12.94,12.94,0,0,0,28.6,53.92,13.07,13.07,0,0,0,39,41.22C39,38.47,34.75,38.47,34.69,41.22Z"/><path class="cls-1" d="M7.75,67a26.14,26.14,0,0,1,18.49-7.83A26.78,26.78,0,0,1,44.5,67c2,1.92,5-1.12,3-3a31.31,31.31,0,0,0-21.28-9.09A30.61,30.61,0,0,0,4.74,64c-2,1.92,1,5,3,3Z"/></g></g></svg>