<svg xmlns="http://www.w3.org/2000/svg" viewBox="0 0 78.85 75"><defs><style>.cls-1{fill:#fff;}</style></defs><title>hTerms_icon</title><g id="Layer_2" data-name="Layer 2"><g id="Layer_1-2" data-name="Layer 1"><path class="cls-1" d="M65.32,59.1H12.68V16.29A16.3,16.3,0,0,1,29,0H65.32ZM15.06,56.72H62.94V2.38H29a13.92,13.92,0,0,0-13.9,13.91Z"/><path class="cls-1" d="M56.18,75h-47a9.14,9.14,0,0,1,0-18.28H65.32v9.14A9.15,9.15,0,0,1,56.18,75Zm-47-15.9a6.76,6.76,0,0,0,0,13.52h47a6.76,6.76,0,0,0,6.76-6.76V59.1Z"/><path class="cls-1" d="M50,75a9.14,9.14,0,0,1,0-18.28V59.1a6.76,6.76,0,1,0,0,13.52Z"/><path class="cls-1" d="M69.71,18.28H62.94V0h6.77a9.14,9.14,0,0,1,0,18.28ZM65.32,15.9h4.39a6.76,6.76,0,1,0,0-13.52H65.32Z"/><rect class="cls-1" x="22.46" y="44.69" width="33.08" height="2.38"/><rect class="cls-1" x="22.46" y="34.8" width="33.08" height="2.38"/><rect class="cls-1" x="22.46" y="24.92" width="33.08" height="2.38"/><rect class="cls-1" x="22.46" y="15.04" width="33.08" height="2.38"/></g></g></svg>