<svg xmlns="http://www.w3.org/2000/svg" viewBox="0 0 60 60"><defs><style>.cls-1{fill:#2e3192;}.cls-2{fill:#fff;}</style></defs><title>inAttendance_icon</title><g id="Layer_2" data-name="Layer 2"><g id="Layer_1-2" data-name="Layer 1"><rect class="cls-1" width="60" height="60" rx="3.47" ry="3.47"/><path class="cls-2" d="M42.55,17h-1.5v2h1.5c.14,0,.48.41.48,1V42a1.05,1.05,0,0,1-1,1H18a1.05,1.05,0,0,1-1-1v-17H43V23H17V20c0-.62.28-1,.48-1H19V17h-1.5a2.78,2.78,0,0,0-2.52,3V42a3,3,0,0,0,3,3h24a3.24,3.24,0,0,0,3.13-3V20A2.82,2.82,0,0,0,42.55,17Z"/><path class="cls-2" d="M22,21a1.09,1.09,0,0,0,1-1V16a1,1,0,0,0-2,0v4A1.05,1.05,0,0,0,22,21Z"/><path class="cls-2" d="M37.91,21a1,1,0,0,0,1-1V16a1,1,0,1,0-2,0v4A1.05,1.05,0,0,0,37.91,21Z"/><rect class="cls-2" x="24.95" y="17.01" width="9.96" height="2.05"/><polygon class="cls-2" points="21.13 30.92 19.91 32.15 28.02 40.33 39.96 28.4 38.73 27.17 28.02 37.88 21.13 30.92"/></g></g></svg>