<svg xmlns="http://www.w3.org/2000/svg" viewBox="0 0 60 60"><defs><style>.cls-1{fill:#2e3192;}.cls-2{fill:#fff;}</style></defs><title>inclassTime_icon</title><g id="Layer_2" data-name="Layer 2"><g id="Layer_1-2" data-name="Layer 1"><rect class="cls-1" width="60" height="60" rx="3.47" ry="3.47"/><g id="miu"><g id="Artboard-1"><path id="circle-clock-time-history-recent-2-outline-stroke" class="cls-2" d="M18.37,26.71A11.67,11.67,0,1,1,30,38.39,11.67,11.67,0,0,1,18.37,26.71Zm22.33,0A10.66,10.66,0,1,0,30,37.37,10.66,10.66,0,0,0,40.7,26.71ZM29.53,19.1h1v8.12H24.46v-1h5.07Z"/></g><path class="cls-2" d="M23.71,41.29a1.25,1.25,0,0,1-.79,1.15,1.22,1.22,0,0,1-1.37-.38,1.22,1.22,0,1,1,2.16-.77.3.3,0,0,0,.6,0,1.85,1.85,0,0,0-1.21-1.72,1.82,1.82,0,0,0-2,.57,1.82,1.82,0,1,0,3.22,1.15A.3.3,0,0,0,23.71,41.29Z"/><path class="cls-2" d="M19.9,44.93a3.63,3.63,0,0,1,2.61-1.1,3.81,3.81,0,0,1,2.58,1.1.3.3,0,0,0,.42-.43,4.41,4.41,0,0,0-3-1.28,4.35,4.35,0,0,0-3,1.28c-.28.28.15.7.43.43Z"/><path class="cls-2" d="M30.4,41.29a1.25,1.25,0,0,1-.79,1.15,1.22,1.22,0,0,1-1.37-.38,1.22,1.22,0,1,1,2.16-.77.3.3,0,0,0,.6,0,1.85,1.85,0,0,0-1.21-1.72,1.82,1.82,0,0,0-2,.57A1.82,1.82,0,1,0,31,41.29.3.3,0,0,0,30.4,41.29Z"/><path class="cls-2" d="M26.59,44.93a3.63,3.63,0,0,1,2.61-1.1,3.79,3.79,0,0,1,2.58,1.1c.28.27.71-.15.43-.43a4.43,4.43,0,0,0-3-1.28,4.37,4.37,0,0,0-3,1.28c-.28.28.15.7.43.43Z"/><path class="cls-2" d="M37.09,41.29a1.24,1.24,0,0,1-.79,1.15,1.2,1.2,0,0,1-1.36-.38,1.22,1.22,0,1,1,2.15-.77.3.3,0,0,0,.6,0,1.85,1.85,0,0,0-1.2-1.72,1.81,1.81,0,0,0-2,.57,1.86,1.86,0,0,0-.17,2.07,1.81,1.81,0,0,0,3.38-.92A.3.3,0,0,0,37.09,41.29Z"/><path class="cls-2" d="M33.28,44.93a3.63,3.63,0,0,1,2.61-1.1,3.79,3.79,0,0,1,2.58,1.1c.28.27.71-.15.43-.43a4.43,4.43,0,0,0-3-1.28,4.37,4.37,0,0,0-3,1.28.3.3,0,0,0,.43.43Z"/></g></g></g></svg>