<svg xmlns="http://www.w3.org/2000/svg" viewBox="0 0 60 60"><defs><style>.cls-1{fill:#2e3192;}.cls-2{fill:#fff;}</style></defs><title>inCoCurricular_icon</title><g id="Layer_2" data-name="Layer 2"><g id="Layer_1-2" data-name="Layer 1"><rect class="cls-1" width="60" height="60" rx="3.47" ry="3.47"/><path class="cls-2" d="M31.64,23.48h0a10.39,10.39,0,0,0-11.35,7.17h0A10.32,10.32,0,0,0,30.19,44h0a10.37,10.37,0,0,0,5.47-1.59h0a10.37,10.37,0,0,0,4.35-5.63,10.12,10.12,0,0,0,.48-3.09A10.37,10.37,0,0,0,31.64,23.48Zm5.78,4.26a9.26,9.26,0,0,1,2.16,5.95,9.48,9.48,0,0,1-.32,2.43l-.17,0-.25,0H38l-.35,0h-.2l-.37,0-.16,0a9.92,9.92,0,0,0-1.05.24l-.13,0-.37.13-.18.07-.32.13-.11,0v0L34.36,36a.89.89,0,0,1-.08-.17c-.13-.25-.26-.51-.4-.76l-.06-.1c-.13-.24-.27-.47-.41-.71l-.09-.14c-.15-.25-.32-.5-.49-.75a.25.25,0,0,0,0-.07A32.5,32.5,0,0,0,37.42,27.74Zm-6.52,15,0-.11c0-.14.09-.28.13-.41l0-.08a3.05,3.05,0,0,1,.13-.32.78.78,0,0,1,.05-.14l.12-.25a1,1,0,0,1,.07-.15l.12-.24s.05-.09.07-.14l.15-.24a.75.75,0,0,1,.07-.12,7.51,7.51,0,0,1,.47-.68l.08-.1.18-.22a.52.52,0,0,0,.1-.11l.18-.19.11-.11.2-.19.1-.09c.08-.08.17-.14.25-.21l.07-.06.32-.24.09-.06.2-.13h0s0,.06,0,.08.1.29.14.43l0,.17.1.34c0,.06,0,.12,0,.18l.09.35,0,.16.09.44s0,0,0,.07c0,.17.06.33.08.5a.77.77,0,0,0,0,.15l0,.35c0,.06,0,.12,0,.18s0,.11,0,.16A9.42,9.42,0,0,1,30.84,43Zm1.33-10.23,0,0c-.18-.24-.36-.48-.55-.71l-.13-.16-.6-.72-.05-.05c-.19-.22-.4-.45-.61-.67l-.13-.14-.67-.69,0,0,0-.05c.15-.14.29-.29.43-.44h0a4.54,4.54,0,0,0,.39-.48l.07-.08c.12-.16.23-.33.34-.49l.06-.1c.11-.17.21-.35.31-.53v0a4.49,4.49,0,0,0,.26-.54.36.36,0,0,0,0-.09c.08-.18.15-.37.22-.57,0,0,0-.07,0-.11.06-.2.12-.39.17-.6a.64.64,0,0,0,0-.07c.05-.19.09-.39.13-.59a.43.43,0,0,0,0-.05A9.31,9.31,0,0,1,36.76,27,32.28,32.28,0,0,1,32.23,32.55Zm-2-8.23c.27,0,.56,0,.84,0v.06a4.28,4.28,0,0,1-.12.54v0c0,.19-.11.37-.16.54l0,.1c-.06.17-.12.34-.19.5a.69.69,0,0,0,0,.1l-.24.5,0,0a4.25,4.25,0,0,1-.27.46.35.35,0,0,1-.05.08c-.09.15-.19.29-.3.44l-.06.08c-.11.14-.23.28-.35.41l0,.05-.36.37,0,0a33.71,33.71,0,0,0-3.58-2.91A9.41,9.41,0,0,1,30.19,24.32Zm-5.86,2A30.21,30.21,0,0,1,28,29.28l-.06,0-.21.14-.33.2-.23.13-.33.17-.24.1-.34.14L26,30.3l-.36.11-.26.07-.38.08-.25.05-.44.05-.21,0-.66,0c-.19,0-.39,0-.59,0h-.18l-.42-.05-.21,0-.39-.08-.2,0-.1,0A9.36,9.36,0,0,1,24.33,26.35Zm-3.25,5,.14,0,.24.05.42.08.25,0,.45.05.21,0,.66,0h0l.68,0h.06c.22,0,.43,0,.64-.07h.09q.3,0,.6-.12l.1,0,.58-.17.1,0a5.37,5.37,0,0,0,.56-.21.2.2,0,0,0,.08,0c.19-.08.38-.16.57-.26l0,0,.56-.32h0c.18-.12.36-.24.54-.38l0,0,.06.06.67.69.12.13c.22.23.43.47.64.71l0,0c.22.25.42.49.62.74l.11.13.55.72,0,.05-.17.16-.28.24-.33.29-.28.23-.34.27-.27.21-.35.26-.27.19-.36.25-.26.17-.37.24-.25.16-.41.23-.22.13-.56.29-.06,0-.63.3-.18.08-.45.19-.24.08-.39.15-.26.08-.37.12-.27.08-.36.09-.28.06-.35.08-.29,0-.34.06-.29,0-.19,0a9.31,9.31,0,0,1-1.07-4.33A9.51,9.51,0,0,1,21.08,31.37Zm1.32,7.55.62-.1h.06l.59-.13.23-.06.43-.11.26-.08.39-.12.28-.09.38-.14.27-.11.38-.16.28-.12.39-.18.26-.13.41-.21.23-.13.53-.3.11-.07.64-.4.2-.13.44-.31.24-.17.4-.29.26-.2.37-.3.27-.22.37-.31.26-.23.13-.12,0,0c.16.24.31.48.46.72l.1.16c.14.24.28.48.41.72a.25.25,0,0,1,0,.07c.12.22.24.45.35.68l.07.15c.12.24.22.48.32.72l0,.05,0,0-.14.09-.25.17-.15.11-.23.17-.15.12-.21.18-.15.13-.2.19-.14.14a1.8,1.8,0,0,0-.19.2l-.13.14-.19.23a1.34,1.34,0,0,0-.11.14l-.21.28-.08.1-.26.39-.06.11-.18.31a.8.8,0,0,0-.08.16c-.05.09-.1.17-.14.26a1.42,1.42,0,0,0-.08.18l-.12.27c0,.06-.05.12-.08.19s-.07.17-.1.26-.05.13-.07.2l-.09.27L30,42.5a2.29,2.29,0,0,0-.07.28,1.46,1.46,0,0,0-.05.2s0,0,0,.06A9.4,9.4,0,0,1,22.4,38.92Zm13.47,2.22s0-.07,0-.1c0-.23-.05-.45-.09-.68,0,0,0-.06,0-.09q-.06-.37-.15-.75c0-.07,0-.14,0-.2-.06-.22-.11-.43-.18-.65l0-.13c-.08-.25-.16-.51-.25-.76,0,0,0,0,0-.06l.1,0,.28-.12.17-.06.28-.1.16-.06.3-.08.15,0,.36-.07.1,0,.45-.07h.15l.32,0h.45l.44,0H39A9.37,9.37,0,0,1,35.87,41.14Z"/><path class="cls-2" d="M18.85,30c.15-.34.32-.68.49-1l-.67-.66,2.22-2.21.23.24c.22-.27.46-.54.71-.8C20.73,24.45,20,23.74,20,23.74h0L20,23.67a2.65,2.65,0,0,0-2.16-.75A3,3,0,0,0,16.94,20a4.7,4.7,0,0,0-3.75-1.44c-1.94-.2-2.61-2.59-2.61-2.59-3.12,4.43,1.84,8.42,1.84,8.42a3.24,3.24,0,0,0,3,.81,2.64,2.64,0,0,0,.75,2.19l.07.07h0S17.29,28.52,18.85,30Zm-1.91-5.59A1.59,1.59,0,0,1,18.07,24a1.56,1.56,0,0,1,1.12.45l.82.83.15.15-2.24,2.23-.15-.15-.83-.82a1.5,1.5,0,0,1-.47-1.1A1.63,1.63,0,0,1,16.94,24.42Zm-.72-.74c-1.41,1.4-3.13-.05-3.13-.05S10.58,21.48,10.58,19a3.82,3.82,0,0,1,.06-.68,4,4,0,0,0,2.55,1.35,3.93,3.93,0,0,1,3,1.14,2,2,0,0,1,0,2.91Z"/><path class="cls-2" d="M43.74,27.49h0a.46.46,0,0,1,.07-.07,2.64,2.64,0,0,0,.75-2.19,3.24,3.24,0,0,0,3-.81s5-4,1.84-8.42c0,0-.67,2.39-2.61,2.59A4.7,4.7,0,0,0,43.06,20a3,3,0,0,0-.85,2.89,2.65,2.65,0,0,0-2.16.75l-.06.07h0s-.71.71-1.81,1.84c.25.26.49.53.71.8l.23-.24,2.22,2.21-.67.66c.17.32.34.66.49,1C42.71,28.52,43.74,27.49,43.74,27.49Zm-.21-1.93a1.5,1.5,0,0,1-.47,1.1l-.83.82-.15.15L39.84,25.4l.15-.15.82-.83A1.56,1.56,0,0,1,41.93,24a1.59,1.59,0,0,1,1.13.45A1.63,1.63,0,0,1,43.53,25.56Zm-.37-3.33a2,2,0,0,1,.63-1.46,3.93,3.93,0,0,1,3-1.14,4,4,0,0,0,2.55-1.35,3.82,3.82,0,0,1,.06.68c0,2.52-2.48,4.65-2.51,4.67s-1.72,1.45-3.13.05A2,2,0,0,1,43.16,22.23Z"/></g></g></svg>