<svg xmlns="http://www.w3.org/2000/svg" viewBox="0 0 60 60"><defs><style>.cls-1{fill:#2e3192;}.cls-2{fill:#fff;}</style></defs><title>inEvent_icon</title><g id="Layer_2" data-name="Layer 2"><g id="Layer_1-2" data-name="Layer 1"><rect class="cls-1" width="60" height="60" rx="3.47" ry="3.47"/><g id="Icon-Star"><path id="Fill-5" class="cls-2" d="M32.71,38.93a.37.37,0,0,1-.14,0l-2.69-2-2.69,2a.24.24,0,0,1-.28,0,.23.23,0,0,1-.08-.26l1-3.15-2.69-1.95a.23.23,0,0,1-.08-.26.23.23,0,0,1,.22-.16h3.31l1-3.15a.23.23,0,0,1,.22-.16.22.22,0,0,1,.22.16l1,3.15h3.31a.24.24,0,0,1,.23.16.21.21,0,0,1-.09.26l-2.69,1.95,1,3.15a.22.22,0,0,1-.08.26s-.06,0-.1,0Zm-2.83-2.55a.37.37,0,0,1,.14,0L32.25,38l-.85-2.61a.22.22,0,0,1,.08-.26l2.23-1.61H31a.22.22,0,0,1-.22-.16l-.84-2.61-.85,2.61a.23.23,0,0,1-.22.16H26.06l2.23,1.61a.23.23,0,0,1,.08.26L27.53,38l2.23-1.61a.21.21,0,0,1,.12,0Z"/></g><path class="cls-2" d="M26.22,30.6S23,26.53,21,27.69v1.45C21,26.82,26.22,30.6,26.22,30.6Z"/><path class="cls-2" d="M32.62,30.6s3.19-4.07,5.23-2.91v1.45C37.85,26.82,32.62,30.6,32.62,30.6Z"/><path class="cls-2" d="M41.68,17.9H40.29v1.85h1.39c.13,0,.45.38.45.95V41.21a1,1,0,0,1-1,.95H18.83a1,1,0,0,1-1-.95V25.4H42.06V23.49H17.87V20.7c0-.57.26-.95.45-.95h1.39V17.9H18.32A2.59,2.59,0,0,0,16,20.7V41.21A2.82,2.82,0,0,0,18.76,44H41.11A3,3,0,0,0,44,41.21V20.7A2.63,2.63,0,0,0,41.68,17.9Z"/><path class="cls-2" d="M22.51,21.65a1,1,0,0,0,.95-.95V17a.95.95,0,0,0-1.9,0V20.7A1,1,0,0,0,22.51,21.65Z"/><path class="cls-2" d="M37.37,21.65a1,1,0,0,0,1-.95V17a1,1,0,0,0-1.91,0V20.7A1,1,0,0,0,37.37,21.65Z"/><rect class="cls-2" x="25.3" y="17.9" width="9.27" height="1.9"/></g></g></svg>