<svg xmlns="http://www.w3.org/2000/svg" viewBox="0 0 60 60"><defs><style>.cls-1{fill:#2e3192;}.cls-2{fill:#fff;}</style></defs><title>inExams_icons</title><g id="Layer_2" data-name="Layer 2"><g id="Layer_1-2" data-name="Layer 1"><rect class="cls-1" width="60" height="60" rx="3.47" ry="3.47"/><path class="cls-2" d="M33.09,16H15.32a.47.47,0,0,0-.47.47V44.55a.47.47,0,0,0,.47.47H33.09a.47.47,0,0,0,.47-.47V16.49A.47.47,0,0,0,33.09,16Zm-.78,27.75H16.1V17.27H32.31Z"/><path class="cls-2" d="M18.12,27.63H20a.47.47,0,0,0,.46-.47V25.29a.47.47,0,0,0-.46-.47H18.12a.47.47,0,0,0-.46.47v1.87A.47.47,0,0,0,18.12,27.63Zm.47-1.88h.94v.94h-.94Z"/><path class="cls-2" d="M18.12,31.37H20a.47.47,0,0,0,.46-.47V29a.47.47,0,0,0-.46-.47H18.12a.47.47,0,0,0-.46.47V30.9A.47.47,0,0,0,18.12,31.37Zm.47-1.87h.94v.93h-.94Z"/><path class="cls-2" d="M18.12,35.11H20a.47.47,0,0,0,.46-.47V32.77A.47.47,0,0,0,20,32.3H18.12a.47.47,0,0,0-.46.47v1.87A.47.47,0,0,0,18.12,35.11Zm.47-1.87h.94v.93h-.94Z"/><path class="cls-2" d="M18.12,38.85H20a.47.47,0,0,0,.46-.47V36.51a.46.46,0,0,0-.46-.46H18.12a.46.46,0,0,0-.46.46v1.87A.47.47,0,0,0,18.12,38.85ZM18.59,37h.94v.94h-.94Z"/><rect class="cls-2" x="19.53" y="19.48" width="9.35" height="0.94"/><rect class="cls-2" x="21.4" y="21.35" width="5.15" height="0.94"/><rect class="cls-2" x="22.33" y="25.75" width="8.42" height="0.94"/><rect class="cls-2" x="22.33" y="29.5" width="8.42" height="0.94"/><rect class="cls-2" x="22.33" y="33.24" width="8.42" height="0.94"/><rect class="cls-2" x="22.33" y="36.98" width="8.42" height="0.94"/><path class="cls-2" d="M37.75,19.16a.46.46,0,0,0-.45-.33.47.47,0,0,0-.45.33l-1.4,4.68a.59.59,0,0,0,0,.13V44.55a.47.47,0,0,0,.47.47h2.81a.47.47,0,0,0,.46-.47V24a.3.3,0,0,0,0-.13Zm-.45,1.76.78,2.58H36.53Zm.94,23.16H36.37V42.21h1.87Zm0-2.8H36.37V24.44h1.87Z"/><path class="cls-2" d="M43.38,35.66v-15a.57.57,0,0,0,0-.18l-.94-2.34a.46.46,0,0,0-.86,0l-.94,2.34a.57.57,0,0,0,0,.18v15a.47.47,0,0,0-.47.47v5.62a.47.47,0,0,0,.47.46v2.34A.47.47,0,0,0,41,45h1.88a.47.47,0,0,0,.46-.47V42.21a.47.47,0,0,0,.47-.46V36.13A.47.47,0,0,0,43.38,35.66Zm-1.4-16,.43,1.08h-.86Zm-.47,2h.94v14h-.94Zm.94,22.45h-.94V42.21h.94Zm.47-2.8H41V36.6h1.88Z"/></g></g></svg>