<svg xmlns="http://www.w3.org/2000/svg" viewBox="0 0 60 60"><defs><style>.cls-1{fill:#2e3192;}.cls-2{fill:#fff;}</style></defs><title>inLibrary</title><g id="Layer_2" data-name="Layer 2"><g id="Layer_1-2" data-name="Layer 1"><rect class="cls-1" width="60" height="60" rx="3.47" ry="3.47"/><path class="cls-2" d="M27.22,43.18,25,20.07a.89.89,0,0,1,.8-1L30,18.7a.9.9,0,0,1,1,.81l2.19,23.1a.89.89,0,0,1-.81,1L28.19,44A.88.88,0,0,1,27.22,43.18ZM26,20.05l2.17,23,4-.38L30,19.67Z"/><path class="cls-2" d="M32.67,43.33,30.45,19.92a.74.74,0,0,1,.66-.81l4.48-.42a.73.73,0,0,1,.8.66l2.22,23.42a.73.73,0,0,1-.66.8L33.47,44A.73.73,0,0,1,32.67,43.33ZM31.43,20.05,33.6,43l4-.38-2.17-23Z"/><path class="cls-2" d="M38.08,43.11l-2.17-23a1,1,0,0,1,.86-1.05l2.9-.27a1,1,0,0,1,1,.86l2.18,23A1,1,0,0,1,42,43.7l-2.9.28A1,1,0,0,1,38.08,43.11ZM36.86,20.05,39,43l2.9-.27-2.17-23Z"/><path class="cls-2" d="M25.06,16.69a.76.76,0,0,0-.82-.69l-6.45.61a.76.76,0,0,0-.69.83l2.45,25.87a.76.76,0,0,0,.83.68l6.45-.61a.76.76,0,0,0,.68-.82ZM26.14,38.2l-6.06.55L18.72,24.37l6.05-.55ZM24.13,17l.55,5.88-6.05.55-.55-5.86ZM20.49,43l-.32-3.32,6.06-.55.31,3.3Z"/></g></g></svg>