<svg xmlns="http://www.w3.org/2000/svg" viewBox="0 0 60 60"><defs><style>.cls-1{fill:#2e3192;}.cls-2{fill:#fff;}</style></defs><title>inMessages_icon</title><g id="Layer_2" data-name="Layer 2"><g id="Layer_1-2" data-name="Layer 1"><rect class="cls-1" width="60" height="60" rx="3.47" ry="3.47"/><path class="cls-2" d="M43.7,16H16.3a2.23,2.23,0,0,0-2.23,2.24V35.42a2.23,2.23,0,0,0,2.23,2.23h3.27L22.26,44,24,37.65H43.7a2.23,2.23,0,0,0,2.23-2.23V18.24A2.23,2.23,0,0,0,43.7,16Zm1,19.42a1,1,0,0,1-1,1H23.09L22,40.29l-1.64-3.86H16.3a1,1,0,0,1-1-1V18.24a1,1,0,0,1,1-1H43.7a1,1,0,0,1,1,1Z"/><rect class="cls-2" x="17.95" y="21.11" width="23.08" height="1.02"/><rect class="cls-2" x="17.95" y="23.56" width="23.08" height="1.02"/><rect class="cls-2" x="17.95" y="26.01" width="18.18" height="1.02"/></g></g></svg>