<svg xmlns="http://www.w3.org/2000/svg" viewBox="0 0 60 60"><defs><style>.cls-1{fill:#2e3192;}.cls-2{fill:#fff;}</style></defs><title>inMyTodoList_icon</title><g id="Layer_2" data-name="Layer 2"><g id="Layer_1-2" data-name="Layer 1"><rect class="cls-1" width="60" height="60" rx="3.47" ry="3.47"/><path class="cls-2" d="M21.22,22.71h2.69a.68.68,0,0,0,.68-.68V19.34a.68.68,0,0,0-.68-.67H21.22a.67.67,0,0,0-.67.67V22A.67.67,0,0,0,21.22,22.71Zm.67-2.7h1.35v1.35H21.89Z"/><path class="cls-2" d="M21.22,28.09h2.69a.68.68,0,0,0,.68-.67V24.73a.69.69,0,0,0-.68-.68H21.22a.68.68,0,0,0-.67.68v2.69A.67.67,0,0,0,21.22,28.09Zm.67-2.69h1.35v1.35H21.89Z"/><path class="cls-2" d="M21.22,33.48h2.69a.68.68,0,0,0,.68-.67v-2.7a.68.68,0,0,0-.68-.67H21.22a.67.67,0,0,0-.67.67v2.7A.67.67,0,0,0,21.22,33.48Zm.67-2.69h1.35v1.34H21.89Z"/><path class="cls-2" d="M21.22,38.87h2.69a.69.69,0,0,0,.68-.68V35.5a.68.68,0,0,0-.68-.67H21.22a.67.67,0,0,0-.67.67v2.69A.68.68,0,0,0,21.22,38.87Zm.67-2.7h1.35v1.35H21.89Z"/><path class="cls-2" d="M28,20H38.72a.68.68,0,0,1,.68.68h0a.67.67,0,0,1-.68.67H28a.67.67,0,0,1-.67-.67h0A.68.68,0,0,1,28,20Z"/><path class="cls-2" d="M28,25.4H38.72a.67.67,0,0,1,.68.67h0a.67.67,0,0,1-.68.68H28a.67.67,0,0,1-.67-.68h0A.67.67,0,0,1,28,25.4Z"/><path class="cls-2" d="M28,30.79H38.72a.67.67,0,0,1,.68.67h0a.67.67,0,0,1-.68.67H28a.67.67,0,0,1-.67-.67h0A.67.67,0,0,1,28,30.79Z"/><path class="cls-2" d="M28,36.17H38.72a.67.67,0,0,1,.68.68h0a.67.67,0,0,1-.68.67H28a.67.67,0,0,1-.67-.67h0A.67.67,0,0,1,28,36.17Z"/><path class="cls-2" d="M37.39,45.15H18.28a.77.77,0,0,1-.76-.77V15.62a.77.77,0,0,1,.76-.77H41.72a.77.77,0,0,1,.76.77V41a.76.76,0,0,1-.29.61L37.87,45A.78.78,0,0,1,37.39,45.15ZM19.53,43.74h16.9a.72.72,0,0,0,.47-.16l3.89-3.06a.79.79,0,0,0,.29-.6V17a.76.76,0,0,0-.77-.76H19.53a.76.76,0,0,0-.77.76V43A.76.76,0,0,0,19.53,43.74Z"/><path class="cls-2" d="M36.92,44.47h-.49A.46.46,0,0,1,36,44V40.5a.47.47,0,0,1,.46-.46h4.48a.46.46,0,0,1,.45.46V41a.46.46,0,0,1-.45.46H37.83a.45.45,0,0,0-.45.45V44A.46.46,0,0,1,36.92,44.47Z"/></g></g></svg>