<svg xmlns="http://www.w3.org/2000/svg" viewBox="0 0 60 60"><defs><style>.cls-1{fill:#2e3192;}.cls-2{fill:#fff;}</style></defs><title>inNotification_icon</title><g id="Layer_2" data-name="Layer 2"><g id="Layer_1-2" data-name="Layer 1"><rect class="cls-1" width="60" height="60" rx="3.47" ry="3.47"/><g id="Icon-Bell"><path id="Fill-114" class="cls-2" d="M44.93,40.52c-5.66,0-6.41-5.29-7.15-10.4C37,24.59,36.22,19.42,30,19.42s-7,5.23-7.78,10.7c-.74,5.11-1.49,10.4-7.15,10.4V38.9c4,0,4.73-3.36,5.53-9,.75-5.42,1.75-12.14,9.4-12.14s8.65,6.72,9.4,12.14c.8,5.6,1.55,9,5.53,9v1.62"/><path id="Fill-115" class="cls-2" d="M30,44a4.38,4.38,0,0,1-4.36-4.36h1.62a2.68,2.68,0,1,0,5.35,0h1.62A4.19,4.19,0,0,1,30,44"/><polygon id="Fill-116" class="cls-2" points="15.07 38.84 44.93 38.84 44.93 40.58 15.07 40.58 15.07 38.84"/><path id="Fill-117" class="cls-2" d="M31.74,17.74c0,1-.81,1.31-1.74,1.31s-1.74-.37-1.74-1.31A1.78,1.78,0,0,1,30,16a1.74,1.74,0,0,1,1.74,1.74"/></g></g></g></svg>