<svg xmlns="http://www.w3.org/2000/svg" viewBox="0 0 60 60"><defs><style>.cls-1{fill:#2e3192;}.cls-2{fill:#fff;}</style></defs><title>inPta_icon</title><g id="Layer_2" data-name="Layer 2"><g id="Layer_1-2" data-name="Layer 1"><rect class="cls-1" width="60" height="60" rx="3.47" ry="3.47"/><path class="cls-2" d="M49.74,32.25a6.07,6.07,0,0,0-3.19-2.6,4.71,4.71,0,0,0-1.69-6.22A4.23,4.23,0,0,0,39,25.2a4.79,4.79,0,0,0,0,4.45,6.7,6.7,0,0,0-1.26.62,8.21,8.21,0,0,0-3.15-1.51,6.49,6.49,0,0,0-.71-8.83,5.75,5.75,0,0,0-8.38.75,6.52,6.52,0,0,0,0,8.08,8.1,8.1,0,0,0-3.14,1.51,6.7,6.7,0,0,0-1.26-.62,4.7,4.7,0,0,0-1.69-6.22,4.22,4.22,0,0,0-5.9,1.77,4.74,4.74,0,0,0,0,4.45,6,6,0,0,0-3,2.29,6.77,6.77,0,0,0-1,2.09,6.29,6.29,0,0,0-.2,1.61v.47a2.65,2.65,0,0,0,2.57,2.71h7.19a3.49,3.49,0,0,0,3.34,2.72H37.59a3.49,3.49,0,0,0,3.34-2.72h7.19a2.65,2.65,0,0,0,2.57-2.71v-.47A6.75,6.75,0,0,0,50.5,34,5.84,5.84,0,0,0,49.74,32.25Zm-7-8.4a3.58,3.58,0,0,1,0,7.16h0a3.59,3.59,0,0,1,0-7.16ZM25,24.72a5,5,0,1,1,10,0A5.15,5.15,0,0,1,30,30h0A5.15,5.15,0,0,1,25,24.72Zm-7.75-.87a3.59,3.59,0,0,1,0,7.16h0a3.59,3.59,0,0,1,0-7.16ZM19,37.26v.56H11.89a1.67,1.67,0,0,1-1.63-1.71h0v-.46a5.26,5.26,0,0,1,3.79-5.14,4.18,4.18,0,0,0,6.11.31c.1-.1.2-.2.29-.31a4.88,4.88,0,0,1,1.09.44A8.89,8.89,0,0,0,19,37.26Zm18.63,3.29H22.41a2.57,2.57,0,0,1-2.5-2.63v-.66a7.61,7.61,0,0,1,6.38-7.65,5.68,5.68,0,0,0,7.42,0,7.61,7.61,0,0,1,6.37,7.66v.65A2.57,2.57,0,0,1,37.59,40.55Zm12.16-4.44a1.67,1.67,0,0,1-1.63,1.71H41v-.56A8.89,8.89,0,0,0,38.46,31a4.88,4.88,0,0,1,1.09-.44,4.18,4.18,0,0,0,6.11.31l.3-.31a5.28,5.28,0,0,1,3.79,5.14Z"/></g></g></svg>