<svg xmlns="http://www.w3.org/2000/svg" viewBox="0 0 60 60"><defs><style>.cls-1{fill:#2e3192;}.cls-2{fill:#fff;}</style></defs><title>inQuickNote_icon</title><g id="Layer_2" data-name="Layer 2"><g id="Layer_1-2" data-name="Layer 1"><rect class="cls-1" width="60" height="60" rx="3.47" ry="3.47"/><g id="Layer_1-3" data-name="Layer 1"><rect class="cls-2" x="20.55" y="24.32" width="12.83" height="1.17"/><rect class="cls-2" x="20.55" y="27.82" width="12.83" height="1.17"/><rect class="cls-2" x="20.55" y="31.32" width="9.92" height="1.17"/><rect class="cls-2" x="20.55" y="34.82" width="7" height="1.17"/><rect class="cls-2" x="20.55" y="38.32" width="7" height="1.17"/><path class="cls-2" d="M38.05,27V21.16l-4.43-4.42H15.88v28H38.05V34.48l6.07-6.08-3.74-3.74Zm-.59,2.24,2.09,2.09-7,7H30.46V36.23ZM34,18.73l2.09,2.09H34Zm2.92,24.84H17.05V17.9H32.8V22h4.08v6.17L29.3,35.74v3.75H33l3.84-3.85Zm3.5-13.08L38.29,28.4l2.09-2.09,2.09,2.09Z"/></g></g></g></svg>