<svg xmlns="http://www.w3.org/2000/svg" viewBox="0 0 60 60"><defs><style>.cls-1{fill:#2e3192;}.cls-2{fill:#fff;}</style></defs><title>inSettings_icon</title><g id="Layer_2" data-name="Layer 2"><g id="Layer_1-2" data-name="Layer 1"><rect class="cls-1" width="60" height="60" rx="3.47" ry="3.47"/><g id="Icon-Gear"><path id="Fill-45" class="cls-2" d="M28.77,37.83A6.81,6.81,0,1,1,35.58,31a6.83,6.83,0,0,1-6.81,6.8Zm0-12.16A5.36,5.36,0,1,0,34.14,31a5.37,5.37,0,0,0-5.37-5.36Z"/><path id="Fill-46" class="cls-2" d="M30.82,45.42H26.73l-1.15-3.49A13.91,13.91,0,0,1,23.35,41L20,42.71l-2.89-2.89,1.69-3.31a10.46,10.46,0,0,1-.91-2.23l-3.49-1.15V29l3.49-1.15a14.37,14.37,0,0,1,.91-2.22l-1.69-3.32L20,19.46l3.31,1.69a10.42,10.42,0,0,1,2.23-.9l1.15-3.5h4.09L32,20.25a14.85,14.85,0,0,1,2.23.9l3.31-1.69,2.89,2.89-1.69,3.32a10.17,10.17,0,0,1,.91,2.22L43.11,29v4.09l-3.49,1.15a14.9,14.9,0,0,1-.91,2.23l1.69,3.31-2.89,2.89L34.2,41a10,10,0,0,1-2.23.91l-1.15,3.49ZM27.75,44H29.8l1.08-3.26.36-.12a10.61,10.61,0,0,0,2.59-1.08l.37-.18L37.27,41l1.44-1.44-1.56-3.07.18-.36a10,10,0,0,0,1.08-2.59l.12-.37,3.25-1.08V30l-3.25-1.08-.12-.36A9.72,9.72,0,0,0,37.33,26l-.18-.36,1.56-3.08-1.44-1.44L34.2,22.65l-.37-.18a9.72,9.72,0,0,0-2.59-1.08l-.36-.12L29.8,18H27.75l-1.08,3.25-.36.12a10.61,10.61,0,0,0-2.59,1.08l-.37.18-3.07-1.56-1.44,1.44,1.56,3.08-.18.36a9.72,9.72,0,0,0-1.08,2.59l-.12.36L15.76,30v2L19,33.13l.12.37a10,10,0,0,0,1.08,2.59l.18.36-1.56,3.07L20.28,41l3.07-1.56.37.18a9.72,9.72,0,0,0,2.59,1.08l.36.12L27.75,44Z"/></g></g></g></svg>