<svg xmlns="http://www.w3.org/2000/svg" viewBox="0 0 60 60"><defs><style>.cls-1{fill:#2e3192;}.cls-2{fill:#fff;}</style></defs><title>inSpecialCare_icon</title><g id="Layer_2" data-name="Layer 2"><g id="Layer_1-2" data-name="Layer 1"><rect class="cls-1" width="60" height="60" rx="3.47" ry="3.47"/><path class="cls-2" d="M36.32,30.71a5.43,5.43,0,0,1-1.77-.2,49,49,0,0,1-5.18-3.19c-.74-.13-4.88-.84-5.78-1A2,2,0,0,1,22,24a1.86,1.86,0,0,1,.07-.34c-3.29,1.32-8.69,3.22-9.85,2.06a1.93,1.93,0,0,1-.69-1.81c.25-1.14,1.7-1.69,1.86-1.75L28.91,17c.77-.25,8.07,1.43,12.36,2.45l-.25,1C35.84,19.19,30,17.91,29.21,18L13.73,23.13c-.27.1-1.09.5-1.2,1,0,.24.09.53.41.86.59.51,5.18-.79,10-2.82l.13-.05,7.52.75-.09,1c-.22,0-5.44-.31-6.69-.49a.57.57,0,0,0-.54.15,1,1,0,0,0-.27.59,1,1,0,0,0,.71,1.18c1,.15,5.73.95,5.93,1l.11,0,.09.06a50,50,0,0,0,5.07,3.15c.81.32,4.19,0,6.14-.28l.15,1A40.62,40.62,0,0,1,36.32,30.71ZM29.24,18Z"/><path class="cls-2" d="M46.68,31.78H41.77a1.16,1.16,0,0,1-1.15-1.15V19.32a1.15,1.15,0,0,1,1.15-1.14h4.91a1.14,1.14,0,0,1,1.14,1.14V30.63A1.15,1.15,0,0,1,46.68,31.78ZM41.77,19.21a.11.11,0,0,0-.11.11V30.63a.11.11,0,0,0,.11.11h4.91a.1.1,0,0,0,.1-.11V19.32a.1.1,0,0,0-.1-.11Z"/><path class="cls-2" d="M25.85,34a3.65,3.65,0,0,1-2.31,3.37,3.57,3.57,0,0,1-4-1.11A3.57,3.57,0,1,1,25.85,34a.88.88,0,0,0,1.76,0,5.41,5.41,0,0,0-3.53-5,5.3,5.3,0,0,0-5.89,1.66,5.45,5.45,0,0,0-.48,6.09A5.3,5.3,0,0,0,27.61,34,.88.88,0,0,0,25.85,34Z"/><path class="cls-2" d="M14.69,44.69a10.78,10.78,0,0,1,7.66-3.24,11.08,11.08,0,0,1,7.56,3.24c.83.8,2.07-.46,1.25-1.26a12.93,12.93,0,0,0-8.81-3.76,12.67,12.67,0,0,0-8.91,3.76c-.82.8.43,2.06,1.25,1.26Z"/></g></g></svg>