<svg xmlns="http://www.w3.org/2000/svg" viewBox="0 0 60 60"><defs><style>.cls-1{fill:#2e3192;}.cls-2{fill:#fff;}</style></defs><title>inSyllabus_icon</title><g id="Layer_2" data-name="Layer 2"><g id="Layer_1-2" data-name="Layer 1"><rect class="cls-1" width="60" height="60" rx="3.47" ry="3.47"/><path class="cls-2" d="M43.78,13.79,29.13,16.46,14.48,13.79a1.26,1.26,0,0,0-1.33,1.33V41.76a1.25,1.25,0,0,0,1.33,1.33l14.65,2.66,14.65-2.66a1.25,1.25,0,0,0,1.33-1.33V15.12A1.26,1.26,0,0,0,43.78,13.79Zm-16,30.08-13-2.4V37.76l13,2.67Zm0-4.78-13-2.66v-21l13,2.4Zm15.69,2.38-13,2.4V40.43l13-2.67Zm0-5-13,2.66V17.81l13-2.4Z"/><polygon class="cls-2" points="39.78 32.44 33.13 33.77 33.13 35.1 39.78 33.77 39.78 32.44"/><polygon class="cls-2" points="39.78 28.44 33.13 29.77 33.13 31.1 39.78 29.77 39.78 28.44"/><polygon class="cls-2" points="39.78 24.45 33.13 25.78 33.13 27.11 39.78 25.78 39.78 24.45"/><polygon class="cls-2" points="39.78 20.45 33.13 21.78 33.13 23.11 39.78 21.78 39.78 20.45"/></g></g></svg>