<svg xmlns="http://www.w3.org/2000/svg" viewBox="0 0 60 60"><defs><style>.cls-1{fill:#2e3192;}.cls-2{fill:#fff;}</style></defs><title>inTransport_icon</title><g id="Layer_2" data-name="Layer 2"><g id="Layer_1-2" data-name="Layer 1"><rect class="cls-1" width="60" height="60" rx="3.47" ry="3.47"/><path class="cls-2" d="M23.69,43a.27.27,0,0,1-.27.27H20.89a.28.28,0,0,1-.28-.27v-2h3.08Z"/><path class="cls-2" d="M39.07,43a.27.27,0,0,1-.27.27H36.27A.27.27,0,0,1,36,43v-2h3.07Z"/><path class="cls-2" d="M38.56,14H21.13a2.83,2.83,0,0,0-2.82,2.83V39.43a1.53,1.53,0,0,0,1.51,1.51h0v2a1.05,1.05,0,0,0,1.05,1h2.53a1,1,0,0,0,1-1v-2H35.23v2a1,1,0,0,0,1,1H38.8a1,1,0,0,0,1-1v-2h0a1.53,1.53,0,0,0,1.51-1.51V16.85A2.83,2.83,0,0,0,38.56,14ZM40.14,39a.71.71,0,0,1-.72.71H20.28a.71.71,0,0,1-.71-.71V29.4H40.14Zm0-10.33H19.57V19.79H40.14Zm0-9.71H19.57V17a1.89,1.89,0,0,1,2-1.81H38.17a1.91,1.91,0,0,1,2,1.81Z"/><path class="cls-2" d="M21.77,37.48a1.93,1.93,0,1,0-1.93-1.92A1.92,1.92,0,0,0,21.77,37.48Z"/><path class="cls-2" d="M21.77,34.4a1.16,1.16,0,1,1-1.16,1.16A1.16,1.16,0,0,1,21.77,34.4Z"/><circle class="cls-2" cx="37.92" cy="35.56" r="1.92"/><path class="cls-2" d="M37.92,34.4a1.16,1.16,0,1,1-1.15,1.16A1.15,1.15,0,0,1,37.92,34.4Z"/><path class="cls-2" d="M26,35.56a.39.39,0,0,1,.38-.39h6.93a.39.39,0,0,1,.38.39.38.38,0,0,1-.38.38H26.38A.38.38,0,0,1,26,35.56Z"/><path class="cls-2" d="M23.11,14.79H36.66a4,4,0,0,1,4,4V19a0,0,0,0,1,0,0H19.16a0,0,0,0,1,0,0v-.28A4,4,0,0,1,23.11,14.79Z"/><path class="cls-2" d="M17.35,22.11a.76.76,0,0,1-.76-.76V17.47a.76.76,0,0,1,1.52,0v3.88A.76.76,0,0,1,17.35,22.11Z"/><path class="cls-2" d="M42.35,22.11a.76.76,0,0,1-.76-.76V17.47a.76.76,0,0,1,1.52,0v3.88A.76.76,0,0,1,42.35,22.11Z"/></g></g></svg>