<svg xmlns="http://www.w3.org/2000/svg" viewBox="0 0 36.29 46.39"><defs><style>.cls-1{fill:#2e3192;}</style></defs><title>lab_icon</title><g id="Layer_2" data-name="Layer 2"><g id="Layer_1-2" data-name="Layer 1"><path class="cls-1" d="M17.26,4.68l-.56-.21a14.85,14.85,0,0,1-1.57-.72,7.75,7.75,0,0,1-2.21-2.66L12.5.28l.87-.23A4.25,4.25,0,0,1,16.6.86a2.49,2.49,0,0,1,1,3.31ZM14.08,1a5.49,5.49,0,0,0,1.54,1.81,11.42,11.42,0,0,0,1.13.52A1.42,1.42,0,0,0,16,1.7,3.57,3.57,0,0,0,14.08,1Z"/><path class="cls-1" d="M18.71,4.68l-.3-.52a2.47,2.47,0,0,1,1-3.3A4.2,4.2,0,0,1,22.59.05l.88.23-.41.81a7.43,7.43,0,0,1-2.21,2.66,14.69,14.69,0,0,1-1.56.72ZM21.89,1A3.75,3.75,0,0,0,20,1.71a1.45,1.45,0,0,0-.73,1.65,9.6,9.6,0,0,0,1.13-.52A5.73,5.73,0,0,0,21.89,1Z"/><path class="cls-1" d="M23.87,9.1H12.7a1.18,1.18,0,0,1-1.18-1.19h0V6.45A1.18,1.18,0,0,1,12.7,5.26H23.87a1.19,1.19,0,0,1,1.19,1.19V7.91A1.19,1.19,0,0,1,23.87,9.1ZM12.7,6.31a.14.14,0,0,0-.14.14V7.91a.14.14,0,0,0,.14.14H23.87A.14.14,0,0,0,24,7.91V6.45a.14.14,0,0,0-.14-.14Z"/><path class="cls-1" d="M23.87,9.6H12.7A1.69,1.69,0,0,1,11,7.91V6.45A1.69,1.69,0,0,1,12.7,4.76H23.87a1.69,1.69,0,0,1,1.69,1.69V7.91A1.69,1.69,0,0,1,23.87,9.6ZM12.7,5.76a.68.68,0,0,0-.68.69V7.91a.68.68,0,0,0,.68.69H23.87a.69.69,0,0,0,.69-.69V6.45a.69.69,0,0,0-.69-.69ZM23.87,8.55H12.7a.64.64,0,0,1-.64-.64V6.45a.64.64,0,0,1,.64-.64H23.87a.64.64,0,0,1,.64.64V7.91A.63.63,0,0,1,23.87,8.55Zm-10.81-1H23.51V6.81H13.06Z"/><path class="cls-1" d="M2.55,45.89c-.94,0-1.65-.12-1.94-.63A1.15,1.15,0,0,1,.78,44L11.65,27.45A9.89,9.89,0,0,0,13.25,22L13.19,8.09h9.86V22a10,10,0,0,0,1.61,5.49L35.53,44a1.09,1.09,0,0,1,.13,1.2c-.43.75-1.71.73-3.78.62-.53,0-1,0-1.39,0H5.35A13.2,13.2,0,0,0,4,45.84,13.86,13.86,0,0,1,2.55,45.89Zm-1-1.13a8.75,8.75,0,0,0,2.35.05c.49,0,1-.05,1.43-.05H30.5c.44,0,.92,0,1.44,0a9.35,9.35,0,0,0,2.78-.08.29.29,0,0,0-.07-.12L23.78,28A10.93,10.93,0,0,1,22,22V9.15H14.23L14.31,22A11,11,0,0,1,12.52,28L1.65,44.58A.76.76,0,0,0,1.56,44.76Z"/><path class="cls-1" d="M2.55,46.39c-.92,0-1.92-.1-2.37-.88A1.65,1.65,0,0,1,.4,43.68l10.83-16.5A9.39,9.39,0,0,0,12.75,22L12.69,7.59H23.55V22a9.48,9.48,0,0,0,1.53,5.22L36,43.73a1.56,1.56,0,0,1,.15,1.71c-.61,1.08-2.21,1-4.25.89-.27,0-.53,0-.78,0l-.58,0H5.35A11.92,11.92,0,0,0,4,46.34C3.53,46.39,3,46.39,2.55,46.39ZM1.1,45.1c.18.19.65.29,1.45.29a12.82,12.82,0,0,0,1.37,0,14.25,14.25,0,0,1,1.43-.05H30.49l.63,0,.76,0c1.72.09,2.89.12,3.27-.27l-.19.1c-.39.21-1.22.25-3.05.14-.52,0-1,0-1.41,0H5.34l-.66,0c-.25,0-.51,0-.77,0a6.9,6.9,0,0,1-2.56-.1ZM13.69,8.59,13.75,22a10.31,10.31,0,0,1-1.69,5.78L1.19,44.28a.78.78,0,0,0-.19.54l.1-.25a1.15,1.15,0,0,1,.12-.25L12.11,27.76A10.51,10.51,0,0,0,13.81,22L13.73,8.65h8.76V22a10.47,10.47,0,0,0,1.7,5.78L35.07,44.32a1.35,1.35,0,0,1,.12.22l.09.23a.59.59,0,0,0-.14-.45L24.25,27.72A10.43,10.43,0,0,1,22.55,22V8.59ZM2.39,44.36c.52,0,1.2,0,1.49,0s.51,0,.75,0l.71,0H30.5c.44,0,.94,0,1.48.05.94,0,1.54.06,1.92,0l-10.54-16A11.42,11.42,0,0,1,21.49,22V9.65H14.74L14.81,22a11.45,11.45,0,0,1-1.87,6.35Z"/><path class="cls-1" d="M17.92,33.37a.52.52,0,0,1-.52-.52V8.57a.52.52,0,0,1,.52-.52.52.52,0,0,1,.53.52V32.85A.52.52,0,0,1,17.92,33.37Z"/><path class="cls-1" d="M20.72,11.57h-2.8a.52.52,0,1,1,0-1h2.8a.52.52,0,0,1,0,1Z"/><path class="cls-1" d="M20.72,15h-2.8a.52.52,0,0,1-.52-.52.52.52,0,0,1,.52-.53h2.8a.52.52,0,0,1,.52.53A.52.52,0,0,1,20.72,15Z"/><path class="cls-1" d="M19.33,13.33H17.92a.53.53,0,0,1,0-1.05h1.41a.53.53,0,1,1,0,1.05Z"/><path class="cls-1" d="M19.33,16.62H17.92a.52.52,0,0,1-.52-.53.52.52,0,0,1,.52-.52h1.41a.52.52,0,0,1,.53.52A.53.53,0,0,1,19.33,16.62Z"/><path class="cls-1" d="M20.74,18.27H18a.52.52,0,1,1,0-1h2.79a.52.52,0,1,1,0,1Z"/><path class="cls-1" d="M19.36,19.9H18a.52.52,0,0,1,0-1h1.41a.52.52,0,0,1,0,1Z"/><path class="cls-1" d="M20.78,21.58H18a.52.52,0,0,1,0-1h2.8a.52.52,0,0,1,0,1Z"/><path class="cls-1" d="M19.39,23.21H18a.52.52,0,0,1-.52-.53.52.52,0,0,1,.52-.52h1.41a.52.52,0,0,1,.52.52A.52.52,0,0,1,19.39,23.21Z"/></g></g></svg>