<svg xmlns="http://www.w3.org/2000/svg" viewBox="0 0 75 81.4"><defs><style>.cls-1{fill:#2e3192;}</style></defs><title>library_icon</title><g id="Layer_2" data-name="Layer 2"><g id="Layer_1-2" data-name="Layer 1"><path class="cls-1" d="M29.4,79,23.05,11.84A2.59,2.59,0,0,1,25.39,9L37.5,7.86a2.61,2.61,0,0,1,2.83,2.34l6.35,67.17a2.59,2.59,0,0,1-2.34,2.83L32.23,81.35A2.61,2.61,0,0,1,29.4,79ZM25.84,11.77l6.32,66.78,11.73-1.11L37.57,10.66Z"/><path class="cls-1" d="M45.25,79.46,38.81,11.38a2.14,2.14,0,0,1,1.92-2.33l13-1.23a2.14,2.14,0,0,1,2.33,1.93l6.44,68.08a2.14,2.14,0,0,1-1.92,2.33l-13,1.23A2.14,2.14,0,0,1,45.25,79.46Zm-3.6-67.69L48,78.55l11.72-1.11L53.37,10.66Z"/><path class="cls-1" d="M61,78.81,54.68,12a2.79,2.79,0,0,1,2.51-3l8.43-.8a2.8,2.8,0,0,1,3,2.52L75,77.49a2.8,2.8,0,0,1-2.52,3l-8.43.8A2.79,2.79,0,0,1,61,78.81Zm-3.55-67,6.32,66.78,8.44-.8L65.89,11Z"/><path class="cls-1" d="M23.15,2a2.21,2.21,0,0,0-2.41-2L2,1.78A2.22,2.22,0,0,0,0,4.19l7.12,75.2a2.19,2.19,0,0,0,2.4,2l18.75-1.77a2.22,2.22,0,0,0,2-2.41Zm3.12,62.53-17.6,1.6L4.72,24.32l17.59-1.6ZM20.43,2.84,22.05,20l-17.6,1.6L2.84,4.5ZM9.85,78.55,8.94,68.9l17.59-1.6.91,9.59Z"/></g></g></svg>