<svg xmlns="http://www.w3.org/2000/svg" viewBox="0 0 61.81 75"><defs><style>.cls-1{fill:#2e3192;}</style></defs><title>myTodoList_icon</title><g id="Layer_2" data-name="Layer 2"><g id="Layer_1-2" data-name="Layer 1"><path class="cls-1" d="M9.17,19.45h6.66a1.67,1.67,0,0,0,1.67-1.67V11.11a1.66,1.66,0,0,0-1.67-1.66H9.17A1.66,1.66,0,0,0,7.5,11.11v6.67A1.67,1.67,0,0,0,9.17,19.45Zm1.66-6.67h3.34v3.33H10.83Z"/><path class="cls-1" d="M9.17,32.78h6.66a1.67,1.67,0,0,0,1.67-1.67V24.45a1.67,1.67,0,0,0-1.67-1.67H9.17A1.67,1.67,0,0,0,7.5,24.45v6.66A1.67,1.67,0,0,0,9.17,32.78Zm1.66-6.67h3.34v3.34H10.83Z"/><path class="cls-1" d="M9.17,46.11h6.66a1.66,1.66,0,0,0,1.67-1.66V37.78a1.67,1.67,0,0,0-1.67-1.67H9.17A1.67,1.67,0,0,0,7.5,37.78v6.67A1.66,1.66,0,0,0,9.17,46.11Zm1.66-6.66h3.34v3.33H10.83Z"/><path class="cls-1" d="M9.17,59.45h6.66a1.67,1.67,0,0,0,1.67-1.67V51.11a1.66,1.66,0,0,0-1.67-1.66H9.17A1.66,1.66,0,0,0,7.5,51.11v6.67A1.67,1.67,0,0,0,9.17,59.45Zm1.66-6.67h3.34v3.33H10.83Z"/><path class="cls-1" d="M25.83,12.78H52.5a1.67,1.67,0,0,1,1.67,1.67h0a1.66,1.66,0,0,1-1.67,1.66H25.83a1.66,1.66,0,0,1-1.66-1.66h0A1.66,1.66,0,0,1,25.83,12.78Z"/><path class="cls-1" d="M25.83,26.11H52.5a1.67,1.67,0,0,1,1.67,1.67h0a1.67,1.67,0,0,1-1.67,1.67H25.83a1.66,1.66,0,0,1-1.66-1.67h0A1.66,1.66,0,0,1,25.83,26.11Z"/><path class="cls-1" d="M25.83,39.45H52.5a1.66,1.66,0,0,1,1.67,1.66h0a1.67,1.67,0,0,1-1.67,1.67H25.83a1.66,1.66,0,0,1-1.66-1.67h0A1.66,1.66,0,0,1,25.83,39.45Z"/><path class="cls-1" d="M25.83,52.78H52.5a1.67,1.67,0,0,1,1.67,1.67h0a1.66,1.66,0,0,1-1.67,1.66H25.83a1.66,1.66,0,0,1-1.66-1.66h0A1.66,1.66,0,0,1,25.83,52.78Z"/><path class="cls-1" d="M49.2,75H1.9A1.9,1.9,0,0,1,0,73.1V1.9A1.9,1.9,0,0,1,1.9,0h58a1.9,1.9,0,0,1,1.9,1.9V64.67a1.9,1.9,0,0,1-.73,1.49l-10.7,8.43A1.88,1.88,0,0,1,49.2,75ZM5,71.53H46.82A1.94,1.94,0,0,0,48,71.12l9.61-7.58a1.89,1.89,0,0,0,.72-1.49V5.37a1.9,1.9,0,0,0-1.9-1.9H5a1.9,1.9,0,0,0-1.9,1.9V69.63A1.9,1.9,0,0,0,5,71.53Z"/><path class="cls-1" d="M48,73.33H46.82a1.13,1.13,0,0,1-1.13-1.13V63.49a1.14,1.14,0,0,1,1.13-1.13H57.9A1.13,1.13,0,0,1,59,63.49V64.7a1.12,1.12,0,0,1-1.13,1.13H50.3A1.13,1.13,0,0,0,49.17,67V72.2A1.13,1.13,0,0,1,48,73.33Z"/></g></g></svg>