<svg xmlns="http://www.w3.org/2000/svg" viewBox="0 0 38.4 36"><title>Asset 19</title><g id="Layer_2" data-name="Layer 2"><g id="Layer_1-2" data-name="Layer 1"><g id="Icon-Bell"><path id="Fill-114" d="M38.4,31.52c-7.28,0-8.24-6.8-9.2-13.36-1-7.12-2-13.76-10-13.76s-9,6.72-10,13.76c-1,6.56-1.92,13.36-9.2,13.36V29.44c5.12,0,6.08-4.32,7.12-11.52,1-7,2.24-15.6,12.08-15.6S30.32,11,31.28,17.92c1,7.2,2,11.52,7.12,11.52v2.08"/><path id="Fill-115" d="M19.2,36a5.62,5.62,0,0,1-5.6-5.6h2.08a3.44,3.44,0,0,0,6.88,0h2.08A5.38,5.38,0,0,1,19.2,36"/><polygon id="Fill-116" points="0 29.36 38.4 29.36 38.4 31.6 0 31.6 0 29.36"/><path id="Fill-117" d="M21.44,2.24c0,1.28-1,1.68-2.24,1.68S17,3.44,17,2.24A2.29,2.29,0,0,1,19.2,0a2.24,2.24,0,0,1,2.24,2.24"/></g></g></g></svg>