<svg xmlns="http://www.w3.org/2000/svg" viewBox="0 0 80 75"><defs><style>.cls-1{fill:#2e3192;}</style></defs><title>notification01_icon</title><g id="Layer_2" data-name="Layer 2"><g id="Layer_1-2" data-name="Layer 1"><g id="Icon-Bell"><path id="Fill-114" class="cls-1" d="M80,65.67c-15.17,0-17.17-14.17-19.17-27.84C58.67,23,56.67,9.17,40,9.17s-18.67,14-20.83,28.66c-2,13.67-4,27.84-19.17,27.84V61.33c10.67,0,12.67-9,14.83-24,2-14.5,4.67-32.5,25.17-32.5s23.17,18,25.17,32.5c2.16,15,4.16,24,14.83,24v4.34"/><path id="Fill-115" class="cls-1" d="M40,75A11.71,11.71,0,0,1,28.33,63.33h4.34a7.17,7.17,0,1,0,14.33,0h4.33A11.22,11.22,0,0,1,40,75"/><polygon id="Fill-116" class="cls-1" points="0 61.17 80 61.17 80 65.83 0 65.83 0 61.17"/><path id="Fill-117" class="cls-1" d="M44.67,4.67c0,2.66-2.17,3.5-4.67,3.5s-4.67-1-4.67-3.5A4.78,4.78,0,0,1,40,0a4.66,4.66,0,0,1,4.67,4.67"/></g></g></g></svg>