<svg xmlns="http://www.w3.org/2000/svg" viewBox="0 0 218.88 250"><defs><style>.cls-1{fill:#e6e6e6;}.cls-2{fill:#b3b3b3;}</style></defs><title>Profilepic02</title><g id="Layer_2" data-name="Layer 2"><g id="Layer_1-2" data-name="Layer 1"><rect class="cls-1" width="218.88" height="250"/><g id="Icon-User"><path id="Fill-58" class="cls-2" d="M17.05,250c3.84-9.33,15.92-14.28,29.65-20.31,13.17-6,29.65-13.18,29.65-22V195.64a37,37,0,0,1-13.73-25.25c-3.84-3.85-9.88-11-9.88-19.77A24.55,24.55,0,0,1,56.58,138c-1.1-6-3.29-18.11-3.29-27.45,0-30.2,20.86-50,53.8-50,9.34,0,20.87,2.74,26.91,9.33,14.82,2.75,26.9,20.32,26.9,40.63,0,13.18-2.2,24.16-3.84,29.1a21.73,21.73,0,0,1,3.29,11c0,10.43-4.94,17-9.88,20.32a37.3,37.3,0,0,1-12.63,24.7v12.08c0,7.69,13.72,12.63,26.35,17.57,14.83,5.49,30.2,11,35.14,23.61"/></g></g></g></svg>