<svg xmlns="http://www.w3.org/2000/svg" viewBox="0 0 73.39 40.95"><defs><style>.cls-1{fill:#2e3192;}</style></defs><title>pta_icon</title><g id="Layer_2" data-name="Layer 2"><g id="Layer_1-2" data-name="Layer 1"><path class="cls-1" d="M71.71,24.47A10.81,10.81,0,0,0,66,19.85a8.36,8.36,0,0,0-3-11A7.51,7.51,0,0,0,52.58,12a8.49,8.49,0,0,0,0,7.9A10.7,10.7,0,0,0,50.33,21a14.32,14.32,0,0,0-5.57-2.68A11.54,11.54,0,0,0,43.5,2.62,10.19,10.19,0,0,0,28.63,4a11.55,11.55,0,0,0,0,14.33A14.26,14.26,0,0,0,23.06,21a9.91,9.91,0,0,0-2.24-1.1,8.35,8.35,0,0,0-3-11A7.5,7.5,0,0,0,7.36,12a8.47,8.47,0,0,0,0,7.89,10.68,10.68,0,0,0-5.3,4A12.44,12.44,0,0,0,.35,27.62,11.91,11.91,0,0,0,0,30.48v.82a4.69,4.69,0,0,0,4.57,4.81H17.32A6.2,6.2,0,0,0,23.24,41H50.16a6.2,6.2,0,0,0,5.91-4.84H68.82a4.69,4.69,0,0,0,4.57-4.81v-.82A11.43,11.43,0,0,0,73,27.62,10,10,0,0,0,71.71,24.47ZM59.3,9.57a6.19,6.19,0,0,1,6,6.33,6.21,6.21,0,0,1-6,6.36h0a6.2,6.2,0,0,1-6-6.33A6.19,6.19,0,0,1,59.3,9.57ZM27.83,11.12a9.12,9.12,0,0,1,8.86-9.35,9.11,9.11,0,0,1,8.87,9.33,9.1,9.1,0,0,1-8.85,9.35h0A9.12,9.12,0,0,1,27.83,11.12ZM14.08,9.57a6.19,6.19,0,0,1,6,6.33,6.21,6.21,0,0,1-6,6.36h0a6.2,6.2,0,0,1-6-6.33A6.19,6.19,0,0,1,14.08,9.57Zm3,23.78v1H4.58a3,3,0,0,1-2.89-3h0v-.82a9.36,9.36,0,0,1,6.72-9.12,7.39,7.39,0,0,0,10.83.56c.18-.18.36-.36.53-.56a8.92,8.92,0,0,1,1.92.79A15.76,15.76,0,0,0,17.13,33.35Zm33,5.83H23.24a4.55,4.55,0,0,1-4.43-4.67V33.35a13.48,13.48,0,0,1,11.3-13.57,10.08,10.08,0,0,0,13.16,0A13.5,13.5,0,0,1,54.58,33.36l0,1.15A4.57,4.57,0,0,1,50.16,39.18Zm21.55-7.87a3,3,0,0,1-2.88,3H56.28v-1A15.79,15.79,0,0,0,51.7,22.18a8.71,8.71,0,0,1,1.93-.79A7.4,7.4,0,0,0,64.46,22a7.14,7.14,0,0,0,.54-.56,9.34,9.34,0,0,1,6.71,9.11Z"/></g></g></svg>