<svg xmlns="http://www.w3.org/2000/svg" viewBox="0 0 75 74.36"><defs><style>.cls-1{fill:#2e3192;}</style></defs><title>quickNotes_icon</title><g id="Layer_2" data-name="Layer 2"><g id="Layer_1-2" data-name="Layer 1"><g id="Layer_1-3" data-name="Layer 1"><rect class="cls-1" x="12.39" y="20.14" width="34.08" height="3.1"/><rect class="cls-1" x="12.39" y="29.43" width="34.08" height="3.1"/><rect class="cls-1" x="12.39" y="38.73" width="26.34" height="3.1"/><rect class="cls-1" x="12.39" y="48.02" width="18.59" height="3.1"/><rect class="cls-1" x="12.39" y="57.32" width="18.59" height="3.1"/><path class="cls-1" d="M58.87,27.24V11.75L47.12,0H0V74.36H58.87V47.12L75,31l-9.94-9.93Zm-1.55,5.93,5.55,5.56L44.28,57.32H38.73V51.76ZM48,5.29l5.56,5.55H48Zm7.75,66H3.1V3.1H44.93V13.94H55.77v16.4L35.63,50.48v9.94h9.94l10.2-10.21Zm9.29-34.72L59.51,31l5.55-5.55L70.62,31Z"/></g></g></g></svg>