<svg xmlns="http://www.w3.org/2000/svg" viewBox="0 0 58.7 75"><defs><style>.cls-1{fill:#2e3192;}</style></defs><title>Asset 50</title><g id="Layer_2" data-name="Layer 2"><g id="Layer_1-2" data-name="Layer 1"><path class="cls-1" d="M53.61,0H5.09A5,5,0,0,0,0,5V70a5,5,0,0,0,5.09,5H53.61a5,5,0,0,0,5.09-5V5A5,5,0,0,0,53.61,0Zm.91,39.07h-15V29.69h15Zm-17.25,0h-33V29.69h33Zm-33,2.25h33v9h-33Zm35.25,0h15v9h-15Zm15-13.88h-15v-9h15Zm-17.25,0h-33v-9h33Zm-33,25.13h33v9.37h-33Zm35.25,0h15v9.37h-15ZM6.15,3.82h46.5a1.87,1.87,0,0,1,1.87,1.87v10.5H4.27V5.69A1.88,1.88,0,0,1,6.15,3.82Zm46.5,67.5H6.15a1.89,1.89,0,0,1-1.88-1.88V64.19H54.52v5.25A1.88,1.88,0,0,1,52.65,71.32Z"/><rect class="cls-1" x="6.9" y="8.69" width="42.75" height="2.25"/><path class="cls-1" d="M48.19,68.57a38.61,38.61,0,0,0-7.6-.09c-1,.08-1.93.36-2.87.37-2.37,0-2.82-.56-3.9-2.14-.18-.27-.76-.09-1,0a15.39,15.39,0,0,1-2.71,1.06,1.53,1.53,0,0,1-1.87-.22l-.14-.63c-.44-.21-.36-.45-.78-.58s-1,.16-1.42.24c-.12,0-.21.18-.32.2l-.67.63c-1.82.55-2.34.21-1.58-1,.33-.38-1.07-.22-1.32.07a1.35,1.35,0,0,0,.65,2.32c1.06.37,1.89-.44,2.78-.74.21-.07.61-.76.79-.73.52.11.47,1.1.72,1.21s.39.39.66.48c1.18.42,3.52-.85,5-1.56.72,1.29.46,2.2,2.15,2.44,1.43.2,3.24-.53,4.66-.69a36.88,36.88,0,0,1,7.86,0C47.61,69.25,48.93,68.64,48.19,68.57Z"/></g></g></svg>