<svg xmlns="http://www.w3.org/2000/svg" viewBox="0 0 75 57.79"><defs><style>.cls-1{fill:#2e3192;}</style></defs><title>specialCare_icon</title><g id="Layer_2" data-name="Layer 2"><g id="Layer_1-2" data-name="Layer 1"><path class="cls-1" d="M51.26,28.41A11.19,11.19,0,0,1,47.61,28c-2.43-1-9.4-5.71-10.69-6.59-1.52-.26-10.08-1.72-11.94-2a4.09,4.09,0,0,1-3.3-4.87,5.47,5.47,0,0,1,.16-.7C15,16.57,3.9,20.49,1.5,18.09A4,4,0,0,1,.08,14.35C.6,12,3.59,10.86,3.93,10.74L36,.05C37.55-.47,52.63,3,61.47,5.11L61,7.2C50.27,4.64,38.16,2,36.59,2.11l-32,10.65c-.54.2-2.23,1-2.46,2.06-.11.49.18,1.09.85,1.76C4.24,17.63,13.71,15,23.7,10.76l.25-.11L39.47,12.2l-.17,2.14c-.46,0-11.23-.66-13.81-1a1.27,1.27,0,0,0-1.12.3,2.11,2.11,0,0,0-.56,1.23,2,2,0,0,0,1.47,2.44c2.07.3,11.82,2,12.23,2l.23,0,.2.13C40.17,21,46.41,25.2,48.4,26c1.66.66,8.65,0,12.67-.58l.3,2.13A85.27,85.27,0,0,1,51.26,28.41ZM36.65,2.09Z"/><path class="cls-1" d="M72.65,30.61H62.5a2.36,2.36,0,0,1-2.35-2.36V4.89A2.35,2.35,0,0,1,62.5,2.54H72.65A2.35,2.35,0,0,1,75,4.89V28.25A2.36,2.36,0,0,1,72.65,30.61ZM62.5,4.68a.22.22,0,0,0-.21.21V28.25a.21.21,0,0,0,.21.21H72.65a.2.2,0,0,0,.2-.21V4.89a.21.21,0,0,0-.2-.21Z"/><path class="cls-1" d="M29.65,35.23a7.51,7.51,0,0,1-4.77,6.94,7.34,7.34,0,0,1-8.26-2.28c-4.18-5.2.48-13.16,7-11.91a7.4,7.4,0,0,1,6,7.25c.05,2.35,3.69,2.38,3.65,0A11.21,11.21,0,0,0,26,24.81a10.92,10.92,0,0,0-12.15,3.43,11.28,11.28,0,0,0-1,12.58,11.09,11.09,0,0,0,11.6,5.27A11.18,11.18,0,0,0,33.3,35.23C33.34,32.88,29.7,32.88,29.65,35.23Z"/><path class="cls-1" d="M6.63,57.27a22.3,22.3,0,0,1,15.8-6.7A22.91,22.91,0,0,1,38,57.27c1.7,1.64,4.28-1,2.57-2.6A26.71,26.71,0,0,0,22.43,46.9,26.18,26.18,0,0,0,4.05,54.67c-1.7,1.64.88,4.24,2.58,2.6Z"/></g></g></svg>