<svg xmlns="http://www.w3.org/2000/svg" viewBox="0 0 95.16 73.56"><defs><style>.cls-1{fill:#2e3192;}</style></defs><title>staff_icon</title><g id="Layer_2" data-name="Layer 2"><g id="Layer_1-2" data-name="Layer 1"><path class="cls-1" d="M47.53,36.8A11.86,11.86,0,1,0,35.66,24.94,11.86,11.86,0,0,0,47.53,36.8Zm0-20a8.13,8.13,0,1,1-8.13,8.13A8.13,8.13,0,0,1,47.53,16.81Z"/><path class="cls-1" d="M78.56,31.38h-5a16.86,16.86,0,0,0-15.28,10,16.52,16.52,0,0,0-8.18-2.17H45a16.48,16.48,0,0,0-8.14,2.15,16.74,16.74,0,0,0-15.21-9.93h-5A16.62,16.62,0,0,0,0,48V63.9a1.87,1.87,0,0,0,1.87,1.87H28.4v5.92a1.87,1.87,0,0,0,1.87,1.87H64.78a1.87,1.87,0,0,0,1.87-1.87V65.77H93.29a1.87,1.87,0,0,0,1.87-1.87V48A16.62,16.62,0,0,0,78.56,31.38Zm0,3.74h.28L76.58,44.8a1,1,0,0,1-.88.83h-.07a1,1,0,0,1-1-.83l-2.24-9.63a9.76,9.76,0,0,1,1.08-.05ZM50.05,42.9c.34,0,.68,0,1,.05L48,53,44.91,42.91h5.14Zm-28.4-7.78H22L18.91,46.47,15.79,35.15l.81,0ZM3.74,48a12.89,12.89,0,0,1,8.39-12.06L17,53.77V62H3.74ZM20.78,62V53.77l4.94-18a13.05,13.05,0,0,1,8,7.79A16.53,16.53,0,0,0,28.4,55.76V62Zm11.36-6.27a12.91,12.91,0,0,1,9-12.28l4.94,16.13V69.82h-14ZM62.91,69.82h-13V59.61l4.86-15.82a12.88,12.88,0,0,1,8.19,12ZM61.33,43.6A13.15,13.15,0,0,1,68.79,36L71,45.65A4.77,4.77,0,0,0,73.76,49V62H66.65V55.76A16.57,16.57,0,0,0,61.33,43.6ZM91.42,62H77.5V49a4.85,4.85,0,0,0,2.72-3.32l2.31-9.9A12.88,12.88,0,0,1,91.42,48Z"/><path class="cls-1" d="M75.93,29.12A11.86,11.86,0,0,0,81.86,7V5.19a5.2,5.2,0,0,0-10.39,0V6.27a11.86,11.86,0,0,0,4.46,22.85Zm0-3.74a8.13,8.13,0,0,1-7.61-5.28,19,19,0,0,0,4.36-1.28,16.9,16.9,0,0,0,4.74-3,13.78,13.78,0,0,0,6.21,4.11A8,8,0,0,1,75.93,25.38ZM84,16a10.9,10.9,0,0,1-4.06-3.12A18.33,18.33,0,0,0,81,11,8.11,8.11,0,0,1,84,16ZM75.21,5.19a1.46,1.46,0,0,1,2.91,0V5.6a12.4,12.4,0,0,0-2.19-.21q-.36,0-.72,0Zm.72,3.94a8.44,8.44,0,0,1,1.74.2,13.28,13.28,0,0,1-9.82,7.07A8.15,8.15,0,0,1,75.93,9.13Z"/><path class="cls-1" d="M19.12,29.12A11.88,11.88,0,0,0,31,17.29v0A11.87,11.87,0,1,0,19.12,29.12Zm0-20A8.12,8.12,0,1,1,11,17.26,8.13,8.13,0,0,1,19.12,9.14Z"/><path class="cls-1" d="M86,45.29H82.48a1.87,1.87,0,1,0,0,3.74H86a1.87,1.87,0,1,0,0-3.74Z"/><path class="cls-1" d="M54.85,53.6a1.87,1.87,0,0,0,0,3.74h3.53a1.87,1.87,0,0,0,0-3.74Z"/><path class="cls-1" d="M29.92,46.54a1.87,1.87,0,0,0-1.87-1.87h-2.7a1.87,1.87,0,1,0,0,3.74h2.7A1.87,1.87,0,0,0,29.92,46.54Z"/></g></g></svg>