<svg xmlns="http://www.w3.org/2000/svg" viewBox="0 0 75 75"><defs><style>.cls-1{fill:#2e3192;}</style></defs><title>syllabus_icon</title><g id="Layer_2" data-name="Layer 2"><g id="Layer_1-2" data-name="Layer 1"><path class="cls-1" d="M71.88,0,37.5,6.25,3.12,0A3,3,0,0,0,0,3.12v62.5a3,3,0,0,0,3.12,3.13L37.5,75l34.38-6.25A3,3,0,0,0,75,65.62V3.12A3,3,0,0,0,71.88,0ZM34.38,70.57,3.8,65v-8.7L34.38,62.5Zm0-11.19L3.8,53.12V3.8L34.38,9.43ZM71.2,65,40.62,70.57V62.5L71.2,56.25Zm0-11.83L40.62,59.38V9.43L71.2,3.8Z"/><polygon class="cls-1" points="62.5 43.75 46.88 46.88 46.88 50 62.5 46.88 62.5 43.75"/><polygon class="cls-1" points="62.5 34.38 46.88 37.5 46.88 40.63 62.5 37.5 62.5 34.38"/><polygon class="cls-1" points="62.5 25 46.88 28.13 46.88 31.25 62.5 28.13 62.5 25"/><polygon class="cls-1" points="62.5 15.63 46.88 18.75 46.88 21.88 62.5 18.75 62.5 15.63"/></g></g></svg>