<svg xmlns="http://www.w3.org/2000/svg" viewBox="0 0 73.98 75"><defs><style>.cls-1{fill:#2e3192;}</style></defs><title>Asset 46</title><g id="Layer_2" data-name="Layer 2"><g id="Layer_1-2" data-name="Layer 1"><path class="cls-1" d="M17,13.54a7.05,7.05,0,0,1-6.75-5.69,7,7,0,0,1,5-7.66A5.92,5.92,0,0,1,16.77,0a7,7,0,0,1,6.54,4.55,6.87,6.87,0,0,1,.17,3.89,7,7,0,0,1-6.07,5.09ZM16.77,1.81a4.84,4.84,0,0,0-1.08.13A5.2,5.2,0,0,0,12,7.56a5.15,5.15,0,0,0,5.28,4.16A5.16,5.16,0,0,0,21.72,8a5,5,0,0,0-.12-2.85A5.2,5.2,0,0,0,16.77,1.81Z"/><path class="cls-1" d="M40.06,41.37a8,8,0,0,1-3.66-.67,4.48,4.48,0,0,1-2.2-4.47.91.91,0,0,1,1.81.13,2.71,2.71,0,0,0,1.21,2.72,7.58,7.58,0,0,0,3.43.48l27.87-.36c1.22,0,2.46-.09,3.1-.81a4.22,4.22,0,0,0,.53-2.89l-.74-17.93A3.8,3.8,0,0,0,70.69,15a3.71,3.71,0,0,0-2.48-.51l-29.91.4a3.46,3.46,0,0,0-1.84.34c-.78.53-.82,1.86-.76,3.1.09,1.67.14,3.67.2,5.66s.12,4,.21,5.62a.92.92,0,0,1-.86,1,.89.89,0,0,1-1-.86C34.21,28,34.15,26,34.09,24s-.12-4-.2-5.63,0-3.66,1.55-4.69a5,5,0,0,1,2.83-.65l29.91-.4a5.15,5.15,0,0,1,3.72,1c1.2,1.08,1.27,2.82,1.32,3.86L74,35.43c.06,1.47,0,3-1,4.15S70.1,41,68.54,41l-27.87.35Z"/><path class="cls-1" d="M67.88,19.84h0l-27.59,0a.91.91,0,1,1,0-1.81h0l27.59,0a.91.91,0,0,1,0,1.81Z"/><path class="cls-1" d="M50.36,25h0l-10.78-.2a.91.91,0,0,1,0-1.81h0l10.77.2a.91.91,0,0,1,0,1.81Z"/><path class="cls-1" d="M41.78,33.06a.91.91,0,0,1-.32-1.76l17.7-6.51a.9.9,0,1,1,.62,1.7L42.09,33A.85.85,0,0,1,41.78,33.06Z"/><path class="cls-1" d="M20.27,75a5.87,5.87,0,0,1-3.58-1.1,2.23,2.23,0,0,1-.93-2l.32-17.34a1.1,1.1,0,0,1,1.1-1.08h0a1.1,1.1,0,0,1,1.08,1.12L18,72v.06a4.17,4.17,0,0,0,4,.43c.84-.3,2.12-4.07,1.57-8.2l-.09-.74a24.45,24.45,0,0,1-.35-5.9c.41-3.08,2.18-5,5-5.31A.86.86,0,0,0,28.7,52a1.62,1.62,0,0,0,.16-1L23.05,27.2a1.11,1.11,0,0,1,2.15-.52L31,50.53a3.83,3.83,0,0,1-.53,2.81,3.09,3.09,0,0,1-2.18,1.2c-1.81.22-2.79,1.3-3.07,3.41a23.37,23.37,0,0,0,.35,5.32l.09.74c.57,4.28-.53,9.67-3,10.57A7.06,7.06,0,0,1,20.27,75Z"/><path class="cls-1" d="M14.2,75a5.87,5.87,0,0,0,3.58-1.1,2.23,2.23,0,0,0,.93-2l-.32-17.34a1.11,1.11,0,0,0-1.11-1.08h0a1.1,1.1,0,0,0-1.08,1.12L16.5,72a.13.13,0,0,0,0,.06,4.18,4.18,0,0,1-4,.43c-.85-.3-2.12-4.07-1.58-8.2l.1-.74a23.92,23.92,0,0,0,.34-5.9c-.4-3.08-2.17-5-5-5.31-.47-.06-.61-.25-.65-.31a1.62,1.62,0,0,1-.16-1l5.8-23.81a1.09,1.09,0,0,0-.81-1.33,1.1,1.1,0,0,0-1.33.81L3.45,50.53A3.83,3.83,0,0,0,4,53.34a3.06,3.06,0,0,0,2.17,1.2C8,54.76,9,55.84,9.22,58a22.75,22.75,0,0,1-.34,5.32l-.1.74c-.56,4.28.54,9.67,3,10.57A7.16,7.16,0,0,0,14.2,75Z"/><path class="cls-1" d="M5.41,46.82H5.29a6.25,6.25,0,0,1-4.15-2.24,6.27,6.27,0,0,1-1-5C1,34.18,3.71,24.29,4.67,22.37c.68-1.37,2.77-5.54,9.92-6a20.16,20.16,0,0,1,11.29,1.91c4.54,2.27,5.17,5.84,5.55,8a6.36,6.36,0,0,0,.34,1.44c.54,1.08.72,1.2,5.21,1.94,2.13.35,3.46,1.1,4.06,2.3.81,1.59,0,3.23-.44,4-1.57,3.06-9,2.22-11.14,1.58a12.21,12.21,0,0,1-3.85-2c-.55-.48-1.12-2.69-.64-3.24s.63-.19,1.18.29a16.83,16.83,0,0,0,3.79,2.34c3.78,1.45,7.92.35,8.3-.19.19-.36.63-1.23.44-1.61s-.78-.67-2.13-.89c-4.46-.73-6-1-7.15-3.36a8.21,8.21,0,0,1-.58-2.17c-.37-2.06-.78-4.4-4.13-6.07A17.61,17.61,0,0,0,14.77,19c-5.64.38-7.16,3.42-7.73,4.57C6.26,25.1,3.62,34.69,2.74,40a3.73,3.73,0,0,0,.49,3,3.68,3.68,0,0,0,2.31,1.24,1.33,1.33,0,0,1-.13,2.65Z"/></g></g></svg>