<svg xmlns="http://www.w3.org/2000/svg" viewBox="0 0 66.29 75"><defs><style>.cls-1{fill:#2e3192;}</style></defs><title>transport_icon</title><g id="Layer_2" data-name="Layer 2"><g id="Layer_1-2" data-name="Layer 1"><path class="cls-1" d="M17.74,72.39a.68.68,0,0,1-.68.69H10.73a.69.69,0,0,1-.68-.69V67.31h7.69Z"/><path class="cls-1" d="M56.21,72.39a.69.69,0,0,1-.69.69H49.2a.69.69,0,0,1-.69-.69V67.31h7.7Z"/><path class="cls-1" d="M54.91,0H11.35A7.09,7.09,0,0,0,4.28,7.07V63.52a3.85,3.85,0,0,0,3.79,3.79h.06v5.08A2.62,2.62,0,0,0,10.73,75h6.33a2.62,2.62,0,0,0,2.61-2.61V67.31H46.59v5.08A2.62,2.62,0,0,0,49.2,75h6.32a2.62,2.62,0,0,0,2.61-2.61V67.31h.06A3.85,3.85,0,0,0,62,63.52V7.07A7.09,7.09,0,0,0,54.91,0Zm4,62.34a1.78,1.78,0,0,1-1.78,1.78H9.23a1.78,1.78,0,0,1-1.78-1.78V38.46H58.86Zm0-25.8H7.45V14.42H58.86Zm0-24.28H7.45V7.46a4.74,4.74,0,0,1,4.91-4.54H54a4.74,4.74,0,0,1,4.91,4.54Z"/><path class="cls-1" d="M12.94,58.65a4.81,4.81,0,1,0-4.81-4.8A4.8,4.8,0,0,0,12.94,58.65Z"/><path class="cls-1" d="M12.94,51a2.89,2.89,0,1,1-2.89,2.89A2.88,2.88,0,0,1,12.94,51Z"/><circle class="cls-1" cx="53.32" cy="53.85" r="4.81"/><path class="cls-1" d="M53.32,51a2.89,2.89,0,1,1-2.88,2.89A2.89,2.89,0,0,1,53.32,51Z"/><path class="cls-1" d="M23.51,53.85a1,1,0,0,1,1-1h17.3a1,1,0,0,1,0,1.93H24.48A1,1,0,0,1,23.51,53.85Z"/><path class="cls-1" d="M10.37,1.92H56.1a4,4,0,0,1,4,4V12.5a0,0,0,0,1,0,0H6.42a0,0,0,0,1,0,0V5.88A4,4,0,0,1,10.37,1.92Z"/><path class="cls-1" d="M1.9,20.22A1.9,1.9,0,0,1,0,18.33V8.63a1.9,1.9,0,1,1,3.79,0v9.7A1.89,1.89,0,0,1,1.9,20.22Z"/><path class="cls-1" d="M64.4,20.22a1.9,1.9,0,0,1-1.9-1.89V8.63a1.9,1.9,0,1,1,3.79,0v9.7A1.89,1.89,0,0,1,64.4,20.22Z"/></g></g></svg>