<svg xmlns="http://www.w3.org/2000/svg" viewBox="0 0 62.52 62.52"><defs><style>.cls-1{fill:#e6e6e6;}.cls-2{fill:none;}.cls-3{fill:#b3b3b3;}</style></defs><title>userDefault</title><g id="Layer_2" data-name="Layer 2"><g id="Layer_1-2" data-name="Layer 1"><circle class="cls-1" cx="31.26" cy="31.26" r="31.26" transform="translate(-9.58 14.34) rotate(-22.5)"/><path class="cls-2" d="M31.26,0A31.26,31.26,0,0,0,11.5,55.48c1.17-1.61,3.57-2.61,6.25-3.78,3-1.38,6.73-3,6.73-5V44a8.41,8.41,0,0,1-3.11-5.73,6.74,6.74,0,0,1-2.25-4.49A5.5,5.5,0,0,1,20,30.87a38.77,38.77,0,0,1-.75-6.24c0-6.86,4.74-11.35,12.22-11.35,2.12,0,4.74.63,6.11,2.12C41,16,43.69,20,43.69,24.63a23.32,23.32,0,0,1-.87,6.61,5,5,0,0,1,.75,2.5,5.34,5.34,0,0,1-2.25,4.61A8.45,8.45,0,0,1,38.45,44v2.75c0,1.74,3.12,2.87,6,4s5.78,2.12,7.3,4.17A31.26,31.26,0,0,0,31.26,0Z"/><path class="cls-3" d="M44.44,50.7c-2.87-1.12-6-2.25-6-4V44a8.45,8.45,0,0,0,2.87-5.61,5.34,5.34,0,0,0,2.25-4.61,5,5,0,0,0-.75-2.5,23.32,23.32,0,0,0,.87-6.61C43.69,20,41,16,37.58,15.4c-1.37-1.49-4-2.12-6.11-2.12-7.48,0-12.22,4.49-12.22,11.35A38.77,38.77,0,0,0,20,30.87a5.5,5.5,0,0,0-.88,2.87,6.74,6.74,0,0,0,2.25,4.49A8.41,8.41,0,0,0,24.48,44v2.75c0,2-3.74,3.61-6.73,5-2.68,1.17-5.08,2.17-6.25,3.78a31.24,31.24,0,0,0,40.24-.61C50.22,52.82,47.29,51.75,44.44,50.7Z"/></g></g></svg>